<?xml version="1.0" encoding="UTF-8"?>
<svg version="1.1" xmlns="http://www.w3.org/2000/svg" width="2079" height="756">

<path d="M0 0 C9.00075967 8.20286962 15.82153631 19.06771127 22.90039062 28.92260742 C26.89257576 34.47925044 30.93223839 39.99848215 35 45.5 C40.0816353 52.37606146 45.10969211 59.28805541 50.10327148 66.22827148 C54.04867299 71.70377871 58.04719069 77.1381171 62.0625 82.5625 C66.97318364 89.20215491 71.78960261 95.89919151 76.53369141 102.65869141 C81.73866926 110.07048333 87.04916013 117.40454165 92.36328125 124.73828125 C93.98509064 126.97939733 95.60265132 129.22351315 97.21875 131.46875 C104.48921757 141.56613085 111.83944415 151.60199963 119.23388672 161.60888672 C121.5766922 164.78077459 123.91574521 167.95541816 126.25439453 171.13037109 C127.41256875 172.70257235 128.57109404 174.27451506 129.72998047 175.84619141 C132.76466578 179.96219155 135.79416505 184.08188322 138.81640625 188.20703125 C139.75709961 189.48900391 139.75709961 189.48900391 140.71679688 190.796875 C141.91107443 192.42463108 143.10388206 194.0534671 144.29492188 195.68359375 C147.40074924 199.91311904 150.59265148 204.00889717 154 208 C157.84994485 206.51213922 159.22776156 204.52625794 161.375 201.0625 C165.00598984 195.41956243 168.87229361 190.01022541 172.875 184.625 C176.97972921 179.09161884 181.0716671 173.55373835 185.0625 167.9375 C185.85805465 166.81899742 186.65362786 165.70050805 187.44921875 164.58203125 C187.85575684 164.01049316 188.26229492 163.43895508 188.68115234 162.85009766 C195.83021878 152.8212888 203.06564635 142.86399463 210.484375 133.03295898 C214.73392117 127.38798756 218.8732723 121.6677063 222.99731445 115.93066406 C227.02014383 110.34003952 231.09276919 104.78813314 235.1875 99.25 C240.00307103 92.73292283 244.75864733 86.1788632 249.453125 79.57421875 C252.38542805 75.45110325 255.34859337 71.35042906 258.3125 67.25 C258.85753174 66.49557617 259.40256348 65.74115234 259.96411133 64.96386719 C262.77347836 61.07631956 265.5860907 57.19115577 268.40234375 53.30859375 C273.15964463 46.74460931 277.90682747 40.18021626 282.5 33.5 C306.52084145 -1.3390513 306.52084145 -1.3390513 314.90234375 -3.671875 C321.84954736 -4.75858841 328.85112266 -4.79202714 335 -1 C339.63190183 3.35943702 342.07679284 6.79161405 342.30395508 13.18969727 C342.34261185 14.27585831 342.38126862 15.36201935 342.4210968 16.48109436 C342.55917444 21.51034391 342.65744557 26.53952899 342.73461914 31.57006836 C342.78602699 34.20540543 342.86075137 36.84040373 342.96020508 39.47436523 C343.57923137 56.17963859 343.13391718 67.81609631 331.46218872 80.40090942 C329.51733663 82.52785419 327.87660741 84.8265159 326.22265625 87.18359375 C325.17088496 88.60276018 324.11753243 90.02075627 323.0625 91.4375 C318.45498579 97.65591204 313.8918138 103.90291277 309.375 110.1875 C302.86726654 119.23360578 296.18855135 128.14620135 289.46264648 137.03076172 C286.52796409 140.92065446 283.6825136 144.84752477 280.9375 148.875 C272.32068546 161.41702437 263.27388037 173.65620939 254.23168945 185.89306641 C250.28648718 191.23747419 246.38068017 196.60859276 242.5 202 C237.45992181 209.00215242 232.35786615 215.95613256 227.23046875 222.89453125 C223.28584596 228.23857676 219.38030944 233.60910781 215.5 239 C211.03979047 245.19654414 206.53740365 251.35976023 202 257.5 C194.70896188 267.36944088 187.52335774 277.31310744 180.36328125 287.27783203 C177.12517003 291.78407529 173.87579991 296.28176889 170.61279297 300.77001953 C168.95989621 303.0554508 167.32575959 305.35362698 165.69140625 307.65234375 C164.62832926 309.12292027 163.56455484 310.59299294 162.5 312.0625 C161.77961548 313.09044678 161.77961548 313.09044678 161.04467773 314.13916016 C159.04907857 316.8642917 157.51050239 318.7711541 154.39453125 320.16796875 C152 320 152 320 150.04296875 318.515625 C149.43066406 317.76796875 148.81835938 317.0203125 148.1875 316.25 C147.49011719 315.404375 146.79273438 314.55875 146.07421875 313.6875 C143.47896951 310.32491719 140.97206749 306.91274573 138.5078125 303.453125 C135.23066067 298.89336852 131.78933933 294.4572736 128.375 290 C123.0567634 283.0487213 117.79938408 276.05903198 112.625 269 C107.9852938 262.67083557 103.27521976 256.41018622 98.46875 250.20703125 C95.73238995 246.66670046 93.05342424 243.0842509 90.375 239.5 C82.98354601 229.61575612 75.49182192 219.80826098 68 210 C67.39945801 209.21351074 66.79891602 208.42702148 66.18017578 207.61669922 C60.86131276 200.65184152 55.53631358 193.69188784 50.1875 186.75 C43.09585892 177.52232245 36.0530883 168.25717839 29 159 C28.67 212.46 28.34 265.92 28 321 C-23 321 -23 321 -31 316 C-35.83777413 310.01818137 -35.56866543 304.30273074 -35.5146637 296.82289124 C-35.52160922 295.59748908 -35.52855475 294.37208692 -35.53571075 293.10955137 C-35.55081423 289.72003297 -35.54804512 286.33139452 -35.53755772 282.94191611 C-35.53055626 279.28196341 -35.5465708 275.62209982 -35.55955505 271.96217346 C-35.58118461 264.796842 -35.58107086 257.63166942 -35.57292951 250.46631605 C-35.5666267 244.64178358 -35.56776912 238.81729741 -35.57420158 232.99276543 C-35.57510324 232.16341527 -35.57600489 231.33406511 -35.57693387 230.47958313 C-35.5787851 228.7946997 -35.58064766 227.10981629 -35.58252143 225.42493289 C-35.5990963 209.62897791 -35.59038341 193.83311227 -35.57353585 178.03716265 C-35.55883967 163.59024731 -35.57346665 149.14353996 -35.60230602 134.69665141 C-35.63170839 119.85704562 -35.64266982 105.0175358 -35.63312382 90.17790216 C-35.63210128 88.49895157 -35.63110667 86.82000096 -35.6301403 85.14105034 C-35.62966391 84.31500787 -35.62918752 83.4889654 -35.6286967 82.63789134 C-35.62653365 76.82211067 -35.63633084 71.00642097 -35.65091133 65.19066048 C-35.66843906 58.1005089 -35.66831115 51.01062245 -35.64555968 43.92048127 C-35.63442119 40.3041783 -35.63124536 36.68834237 -35.64986038 33.07205963 C-35.66979362 29.14916 -35.65087157 25.22698934 -35.62818909 21.30409241 C-35.64002482 20.16488549 -35.65186054 19.02567857 -35.66405493 17.85195023 C-35.58365475 11.01303514 -34.60256327 6.2228493 -30 1 C-21.03874721 -6.13242569 -9.73469416 -5.70992985 0 0 Z " fill="#E14D29" transform="translate(157,222)"/>
<path d="M0 0 C0.99784012 -0.00335861 1.99568024 -0.00671722 3.02375793 -0.01017761 C6.31288918 -0.01965123 9.60196925 -0.02162944 12.89111328 -0.02270508 C15.19450908 -0.02592196 17.49790467 -0.02928635 19.80130005 -0.03279114 C24.63137281 -0.03877475 29.4614277 -0.04063201 34.29150391 -0.04003906 C40.43837651 -0.0399379 46.5851324 -0.05354587 52.73197746 -0.07081127 C57.49364736 -0.08201288 62.25528987 -0.08395572 67.01697159 -0.08342934 C69.2804517 -0.0845989 71.54393277 -0.08896215 73.80739975 -0.0967617 C106.81252028 -0.19977759 106.81252028 -0.19977759 121.52392578 4.83276367 C122.70426392 5.22359131 122.70426392 5.22359131 123.90844727 5.62231445 C135.49293926 9.59084689 145.69297917 14.89697966 154.83642578 23.14526367 C155.53251953 23.74854492 156.22861328 24.35182617 156.94580078 24.97338867 C165.48251315 32.84834039 171.11917789 43.23274881 174.83642578 54.14526367 C175.16642578 55.04631836 175.49642578 55.94737305 175.83642578 56.87573242 C183.18847188 80.91347691 181.1886817 107.66054682 169.46142578 129.95776367 C159.09891472 147.34624972 144.34713367 158.42937742 125.83642578 166.14526367 C126.51705078 166.82588867 127.19767578 167.50651367 127.89892578 168.20776367 C128.35783203 168.67311523 128.81673828 169.1384668 129.28955078 169.61791992 C130.31606148 170.63146963 131.36862112 171.61933088 132.44580078 172.57885742 C148.32232784 187.18089263 155.05307512 211.60018335 163.30126953 230.96166992 C163.78982422 232.10844711 164.27837891 233.2552243 164.78173828 234.43675232 C167.31917277 240.39632905 169.85054554 246.35838038 172.37207031 252.32470703 C178.4924406 266.81818492 178.4924406 266.81818492 184.98876953 281.14526367 C185.28220245 281.77505127 185.57563538 282.40483887 185.87796021 283.05371094 C187.13190841 285.7403724 188.40709048 288.41017265 189.73876953 291.05932617 C193.16795093 298.31497218 193.77447903 305.17149984 192.83642578 313.14526367 C190.64565966 318.85299661 187.29863924 322.30036083 181.83642578 325.14526367 C176.29189912 326.89616683 170.72223392 326.69800054 165.21142578 325.08276367 C156.43140147 320.04237934 153.43692694 311.40273386 149.775177 302.49197388 C148.81427409 300.15386323 147.83812333 297.82264919 146.85766602 295.49267578 C145.84127237 293.07675329 144.82581946 290.66048367 143.81504822 288.24220276 C140.59073654 280.52815334 137.26135861 272.86242497 133.89892578 265.20776367 C133.61789001 264.56710968 133.33685425 263.92645569 133.04730225 263.26638794 C131.29528328 259.27277672 129.53917608 255.28097977 127.78094482 251.2901001 C126.78560068 249.02984882 125.79167277 246.76897793 124.79785156 244.50805664 C123.03480801 240.49878017 121.26677265 236.49173395 119.49557495 232.48605347 C118.82123706 230.95969412 118.14810339 229.43280201 117.47634888 227.90530396 C106.82300084 200.31652915 106.82300084 200.31652915 86.21142578 180.83276367 C80.70779544 179.23960752 75.32299609 179.00426158 69.62792969 179.03173828 C68.82726074 179.03159225 68.0265918 179.03144623 67.20166016 179.03129578 C64.57207469 179.03198888 61.94256128 179.03975292 59.31298828 179.04760742 C57.48310383 179.04947374 55.65321887 179.05089664 53.82333374 179.05189514 C49.0196595 179.05570345 44.21601575 179.06551928 39.41235352 179.07659912 C34.50553805 179.08684956 29.59871763 179.09140054 24.69189453 179.09643555 C15.07339159 179.10714311 5.45491123 179.1241992 -4.16357422 179.14526367 C-4.16080884 179.81395005 -4.15804346 180.48263643 -4.15519428 181.17158604 C-4.08889013 197.45550897 -4.03927211 213.73938905 -4.0081377 230.02341557 C-3.99268046 237.89830949 -3.97161286 245.7731132 -3.93725586 253.64794922 C-3.90731843 260.5130758 -3.88799091 267.37813704 -3.88130873 274.24332708 C-3.87740381 277.87712949 -3.86825072 281.51074498 -3.84638405 285.14448738 C-3.82214943 289.20480707 -3.82160701 293.26480349 -3.82299805 297.32519531 C-3.81221222 298.52497513 -3.80142639 299.72475494 -3.79031372 300.96089172 C-3.8200222 308.97064665 -4.84222833 313.69640692 -9.35107422 320.39526367 C-13.69381575 324.64149983 -18.17454979 326.25839174 -24.22607422 326.45776367 C-30.78318579 325.93735799 -34.60699145 325.12598678 -39.10107422 320.20776367 C-42.16357422 316.60680213 -42.16357422 316.60680213 -42.16357422 313.14526367 C-42.82357422 313.14526367 -43.48357422 313.14526367 -44.16357422 313.14526367 C-44.23225873 277.11855158 -44.28511235 241.09185098 -44.31677021 205.06508688 C-44.32052227 200.81064375 -44.32440525 196.55620075 -44.32836914 192.30175781 C-44.32915607 191.45478401 -44.329943 190.60781021 -44.33075378 189.73517054 C-44.34380344 176.02572795 -44.36745487 162.31632315 -44.39503261 148.60690296 C-44.42309903 134.53707746 -44.4397531 120.46727174 -44.4458397 106.39741939 C-44.44995358 97.71736859 -44.46294138 89.03742459 -44.48732362 80.35740667 C-44.50319608 74.40311106 -44.50797116 68.44887058 -44.50407835 62.49455536 C-44.50215915 59.06054031 -44.50507643 55.62671175 -44.52119064 52.19272995 C-44.53612671 48.464769 -44.53252319 44.73726422 -44.52433777 41.0092926 C-44.53307629 39.93047886 -44.54181482 38.85166512 -44.55081815 37.74016005 C-44.48262798 26.24179795 -41.21111728 18.51794346 -33.34716797 10.23120117 C-23.73986959 1.10911988 -12.6615826 -0.00617026 0 0 Z " fill="#13181E" transform="translate(1227.16357421875,217.854736328125)"/>
<path d="M0 0 C1.29384109 -0.0071553 2.58768219 -0.01431061 3.92073059 -0.02168274 C5.33717322 -0.02452226 6.75361611 -0.02723408 8.1700592 -0.02983093 C9.67533522 -0.03610358 11.18060972 -0.04275108 12.68588257 -0.04974365 C17.60906415 -0.07068046 22.5322457 -0.08113208 27.45545959 -0.09111023 C29.1550657 -0.09516081 30.85467164 -0.09927782 32.55427742 -0.10346031 C40.53660976 -0.12248432 48.51893297 -0.13672461 56.50128359 -0.14507228 C65.70021415 -0.15485303 74.89890464 -0.18120601 84.0977506 -0.22157317 C91.22067749 -0.25175387 98.34353556 -0.26654276 105.46652514 -0.26985329 C109.71564552 -0.27220028 113.96450858 -0.28111585 118.2135601 -0.30631447 C122.21016054 -0.32963657 126.20633485 -0.33381202 130.20298576 -0.32355309 C131.66546041 -0.32305872 133.12795636 -0.3293498 134.59036636 -0.34310913 C144.31103098 -0.42941748 150.51341761 0.15758581 158.17811584 6.45967102 C162.04084622 11.2053112 163.98986247 15.89505103 163.71327209 22.10029602 C162.82926257 27.30502628 160.37353616 31.5457154 156.42811584 35.02217102 C151.62678168 38.35370901 148.03003293 39.39629757 142.19711304 39.41218567 C140.33581757 39.42459541 140.33581757 39.42459541 138.43692017 39.43725586 C137.06980885 39.43643137 135.70269763 39.43543377 134.33558655 39.4342804 C132.88983272 39.44030726 131.44408239 39.44723218 129.99833679 39.45498657 C126.89031256 39.46985454 123.78235235 39.47861937 120.67429543 39.48269653 C115.76275849 39.48941447 110.85135875 39.51117186 105.93988037 39.53523254 C94.63197598 39.58833517 83.32402942 39.62177262 72.01605225 39.65499115 C61.64341805 39.68565337 51.27084291 39.72042953 40.89828557 39.77130175 C36.01238738 39.79469252 31.12658516 39.80840148 26.24063647 39.81479645 C23.20751038 39.82071821 20.17446263 39.83479903 17.1413765 39.85114098 C15.731235 39.85703597 14.32107442 39.85948528 12.9109211 39.85830116 C10.99165385 39.85714859 9.07239208 39.86927257 7.15316772 39.88215637 C6.07747685 39.88508949 5.00178598 39.88802261 3.89349842 39.89104462 C1.19605162 39.8952516 1.19605162 39.8952516 -0.63438416 42.14717102 C-0.85237292 45.15866493 -0.94584244 48.08083713 -0.95323181 51.09492493 C-0.96830025 52.48524681 -0.96830025 52.48524681 -0.9836731 53.90365601 C-1.01464202 56.97700868 -1.03157822 60.05027372 -1.04844666 63.12373352 C-1.06714728 65.25080629 -1.08671985 67.37787156 -1.10713196 69.50492859 C-1.15857595 75.11087125 -1.1981359 80.71683799 -1.23527527 86.32289124 C-1.27523818 92.04042071 -1.32636561 97.75784894 -1.37657166 103.47529602 C-1.47347612 114.69918336 -1.55783427 125.9231277 -1.63438416 137.14717102 C-0.61727608 137.14164026 -0.61727608 137.14164026 0.42037964 137.13599777 C16.93830374 137.04756476 33.45615262 136.98142165 49.97425842 136.93992233 C57.96238215 136.91931885 65.95034762 136.89124083 73.93836975 136.84541321 C80.90275589 136.80547736 87.86702738 136.77972211 94.83152485 136.77081704 C98.51740021 136.76561364 102.20294765 136.75343058 105.88871765 136.72425079 C110.00876763 136.69189905 114.12825167 136.69121592 118.24842834 136.69306946 C119.46331436 136.67868835 120.67820038 136.66430725 121.92990112 136.64949036 C130.0197937 136.68885355 135.79776841 137.57932358 141.74061584 143.52217102 C145.02194598 148.82278124 146.11242151 153.94386588 145.36561584 160.14717102 C143.59860818 166.17578542 140.52109356 169.74876428 135.36561584 173.14717102 C131.68362939 174.87359447 128.80751692 175.39539538 124.75311279 175.38768005 C123.63557114 175.39042938 122.51802948 175.39317871 121.36662292 175.39601135 C120.15030182 175.3888208 118.93398071 175.38163025 117.68080139 175.3742218 C116.39259995 175.37451385 115.1043985 175.37480591 113.77716064 175.37510681 C110.25271966 175.37567983 106.72841525 175.36393382 103.20400596 175.3499589 C99.51779612 175.33744304 95.83158303 175.33628036 92.14535522 175.33390808 C85.16854604 175.32769582 78.19179965 175.31128846 71.21501809 175.2912091 C63.27068487 175.26884218 55.32634862 175.25785468 47.38199174 175.24781823 C31.04316304 175.226922 14.70439746 175.19175097 -1.63438416 175.14717102 C-1.55007644 188.76848387 -1.45523037 202.3896784 -1.34685707 216.0108223 C-1.29686997 222.33538359 -1.25054002 228.65992798 -1.21250916 234.98457336 C-1.17568704 241.0859862 -1.12933525 247.18725845 -1.07632065 253.28855133 C-1.05776039 255.61856882 -1.0426585 257.94861645 -1.03104019 260.27867889 C-1.01420587 263.53739884 -0.98517716 266.79579568 -0.95323181 270.05439758 C-0.95107162 271.02184402 -0.94891144 271.98929047 -0.94668579 272.98605347 C-0.93552231 273.8750383 -0.92435883 274.76402313 -0.91285706 275.6799469 C-0.9073263 276.45056583 -0.90179554 277.22118477 -0.89609718 278.01515579 C-0.59646765 280.45605349 0.07147733 282.06352643 1.36561584 284.14717102 C4.05115391 285.48994006 6.11128079 285.27186066 9.11952209 285.27174377 C10.95728966 285.2755883 10.95728966 285.2755883 12.83218384 285.2795105 C14.19749458 285.27744035 15.56280525 285.2753176 16.92811584 285.27314758 C18.36044368 285.27454202 19.7927711 285.27644111 21.22509766 285.27880859 C24.31514314 285.28331124 27.40517532 285.28516181 30.495224 285.28527069 C35.38768379 285.2864105 40.280068 285.29924677 45.17250061 285.31483459 C45.99824742 285.31740745 46.82399424 285.3199803 47.67476368 285.32263112 C49.36374161 285.32789808 51.05271949 285.33318356 52.74169731 285.33848715 C64.13311249 285.37357902 75.5244351 285.4001545 86.91590881 285.3976593 C94.59679457 285.3960673 102.27742361 285.4121896 109.95822716 285.44836593 C114.02083173 285.46677875 118.08300803 285.47621053 122.14564514 285.46389008 C125.97408965 285.45239358 129.80177022 285.46429494 133.6301136 285.49352455 C135.02882574 285.50012722 136.42760866 285.49836376 137.82629204 285.48722649 C146.35513519 285.42499616 153.26295234 286.09036597 160.36561584 291.14717102 C164.65774192 296.2767851 165.70808725 300.37447848 165.57264709 306.99873352 C165.01728765 312.76189756 163.18014447 316.76388979 158.80311584 320.58467102 C154.66764952 323.8485767 152.25732225 324.27539836 146.93508911 324.29434204 C145.93348846 324.29985707 145.93348846 324.29985707 144.91165346 324.30548352 C142.66330837 324.31653883 140.41500947 324.32036741 138.16664124 324.32417297 C136.55859734 324.33043656 134.95055489 324.33708327 133.34251404 324.34408569 C128.04944369 324.3651524 122.75637298 324.37549495 117.46327209 324.38545227 C115.64023257 324.38949976 113.81719319 324.39361668 111.99415398 324.39780235 C103.42393461 324.41686487 94.85372388 324.43109 86.28348738 324.43941432 C76.40139749 324.44917157 66.5195325 324.475447 56.6375218 324.51591522 C48.99490806 324.54613411 41.35235852 324.56088892 33.70968622 324.56419533 C29.14797047 324.56654054 24.58649468 324.5754307 20.02484322 324.60065651 C15.72626312 324.62404142 11.42807912 324.6281289 7.12945175 324.61789513 C5.55858857 324.61740207 3.98770521 324.62365409 2.41690254 324.63745117 C-9.37766668 324.73518056 -20.6378908 323.5302671 -29.63438416 315.14717102 C-40.14003888 304.72110459 -42.26176842 290.35904294 -42.40144253 276.28945255 C-42.40318262 272.81459656 -42.37554565 269.34065259 -42.34727478 265.86592102 C-42.3488592 263.34455074 -42.35306192 260.82318098 -42.35966492 258.30181885 C-42.36881656 252.20233524 -42.35046625 246.10348016 -42.319089 240.00408775 C-42.28378558 232.88973903 -42.28116587 225.77548519 -42.27985781 218.6610626 C-42.27649291 205.96638156 -42.24499328 193.27193059 -42.19688416 180.5773468 C-42.15030048 168.27622058 -42.1220222 155.97524019 -42.11485291 143.67402649 C-42.11440737 142.91509543 -42.11396184 142.15616436 -42.1135028 141.37423539 C-42.11261756 139.8451951 -42.11173351 138.3161548 -42.11085066 136.7871145 C-42.11041153 136.03274437 -42.1099724 135.27837424 -42.10951996 134.50114441 C-42.10908799 133.74860056 -42.10865601 132.9960567 -42.10821095 132.22070849 C-42.10080377 120.46679149 -42.07809227 108.71289776 -42.05325916 96.95900643 C-42.04440742 92.70864499 -42.03752326 88.45828572 -42.03201491 84.2079187 C-42.02230429 76.84004749 -42.00203307 69.47232473 -41.9703598 62.10450935 C-41.96132935 59.66000438 -41.95564015 57.21548442 -41.95354462 54.77096367 C-41.95004168 51.43328273 -41.93424652 48.09587877 -41.91526794 44.758255 C-41.91700091 43.79249794 -41.91873387 42.82674088 -41.92051935 41.83171844 C-41.82118076 30.17721631 -38.67166461 19.6519779 -30.62657166 11.00263977 C-21.63142705 2.62480901 -12.14812638 0.04640197 0 0 Z " fill="#141920" transform="translate(955.6343841552734,217.8528289794922)"/>
<path d="M0 0 C1.25873932 -0.0071553 2.51747864 -0.01431061 3.81436157 -0.02168274 C5.19143652 -0.02452225 6.56851173 -0.02723406 7.94558716 -0.02983093 C9.40983234 -0.036104 10.87407595 -0.04275153 12.33831787 -0.04974365 C17.12683017 -0.07067767 21.91534243 -0.08113267 26.70388794 -0.09111023 C28.35765728 -0.09516109 30.01142645 -0.09927811 31.66519547 -0.10346031 C39.43342145 -0.1224847 47.20163807 -0.13672421 54.96988285 -0.14507228 C63.91807427 -0.15484939 72.86601865 -0.18119273 81.81412303 -0.22157317 C88.74513512 -0.25177193 95.67607648 -0.26654451 102.60715306 -0.26985329 C106.74061339 -0.27219846 110.87380894 -0.28108999 115.00719833 -0.30631447 C118.89628363 -0.32966795 122.78493108 -0.33379953 126.67406845 -0.32355309 C128.09580954 -0.32305946 129.51757275 -0.32932853 130.93924713 -0.34310913 C139.91929762 -0.42523992 147.63154781 -0.05412852 154.68045044 5.99873352 C155.12388794 6.5839679 155.56732544 7.16920227 156.02420044 7.77217102 C156.48826294 8.36256165 156.95232544 8.95295227 157.43045044 9.56123352 C160.96655399 14.68858368 160.19747073 21.18578745 159.52420044 27.14717102 C157.22466872 32.71356514 153.46536768 35.65856471 148.09050941 38.2814312 C142.74739532 40.08392135 137.1166099 39.68716576 131.53665161 39.64546204 C130.13148423 39.64929037 128.72632077 39.6549138 127.32116699 39.66218567 C124.30967655 39.67408834 121.29853507 39.67368483 118.2870388 39.66359138 C113.52614757 39.64797818 108.76561221 39.6617425 104.00474548 39.67962646 C94.76577007 39.71037619 85.52690471 39.71194905 76.28788757 39.7099762 C64.50948172 39.70858092 52.73115945 39.71887414 40.95281583 39.75855392 C36.21847343 39.77350278 31.48444783 39.77320747 26.75010049 39.76107609 C23.81088063 39.75637519 20.87178289 39.76386845 17.93258286 39.77462006 C15.91623438 39.77818359 13.899877 39.76672973 11.88356018 39.75488281 C10.08988007 39.76501907 10.08988007 39.76501907 8.25996399 39.77536011 C7.21858874 39.7747738 6.1772135 39.77418749 5.10428143 39.77358341 C2.51206454 39.95214124 2.51206454 39.95214124 0.69063568 41.42482376 C-1.43736724 44.56701278 -0.91424472 48.44321794 -0.90817261 52.11665344 C-0.91836426 53.03392715 -0.92855591 53.95120087 -0.9390564 54.89627075 C-0.9692794 57.93178847 -0.97846658 60.96699112 -0.98751831 64.00263977 C-1.00435809 66.10586605 -1.02250737 68.20908223 -1.04191589 70.31228638 C-1.08949809 75.85082338 -1.11925431 81.38931942 -1.14535522 86.92799377 C-1.17511928 92.57860915 -1.22166384 98.22908323 -1.26681519 103.8795929 C-1.35294183 114.96871182 -1.42024547 126.05785976 -1.47579956 137.14717102 C-0.47415268 137.14302295 -0.47415268 137.14302295 0.54772949 137.13879108 C16.81531278 137.07246343 33.08285308 137.02285751 49.35054016 136.9917345 C57.21755843 136.97628261 65.0844863 136.95522529 72.95144653 136.92085266 C79.81035677 136.8908988 86.66920152 136.87158383 93.52817535 136.86490554 C97.15809744 136.86100338 100.7878322 136.85186807 104.41769409 136.82998085 C108.47541524 136.80571346 112.53281316 136.80520486 116.59060669 136.80659485 C117.78679123 136.79580902 118.98297577 136.78502319 120.21540833 136.77391052 C129.73146244 136.80916234 136.5708367 138.35936356 143.52420044 145.14717102 C146.97630982 150.38444656 146.08808999 157.16019559 145.52420044 163.14717102 C143.10126588 168.3519934 139.4129752 171.77685973 134.21719837 174.24151421 C131.26661175 175.23379825 128.98129796 175.39354892 125.87373352 175.38768005 C124.74777771 175.39042938 123.6218219 175.39317871 122.46174622 175.39601135 C120.62323845 175.38522552 120.62323845 175.38522552 118.74758911 175.3742218 C116.80065659 175.37465988 116.80065659 175.37465988 114.81439209 175.37510681 C111.26309289 175.37567986 107.71192921 175.3639334 104.16066146 175.3499589 C100.44642435 175.3374435 96.73218402 175.3362804 93.01792908 175.33390808 C85.98799617 175.32769569 78.95812558 175.31128814 71.92822009 175.2912091 C63.92342846 175.2688426 55.91863383 175.25785478 47.91381872 175.24781823 C31.45057616 175.22692169 14.98739626 175.19175041 -1.47579956 175.14717102 C-1.43864825 189.04658618 -1.3785466 202.94573894 -1.29189682 216.84493732 C-1.25233779 223.29847565 -1.22019064 229.75187581 -1.20480347 236.20552063 C-1.18969245 242.43021803 -1.15534579 248.65453575 -1.10749054 254.87906456 C-1.09261931 257.25734856 -1.08475528 259.63568676 -1.08391571 262.01401711 C-1.0815616 265.3378694 -1.05460673 268.66065905 -1.021698 271.98432922 C-1.02672836 272.97407242 -1.03175873 273.96381561 -1.03694153 274.98355103 C-1.02302872 275.8879895 -1.00911591 276.79242798 -0.99478149 277.72427368 C-0.99109432 278.5105631 -0.98740715 279.29685251 -0.98360825 280.10696888 C-0.61949516 282.28308383 -0.61949516 282.28308383 1.18351746 283.90036392 C4.13566175 285.47287694 6.15231846 285.52082587 9.49411011 285.51898193 C11.32771591 285.52911819 11.32771591 285.52911819 13.19836426 285.53945923 C14.55014177 285.53190605 15.90191788 285.52410032 17.25369263 285.5160675 C18.67971078 285.51853593 20.10572713 285.52237478 21.53173828 285.52748108 C24.60162141 285.53581801 27.67131903 285.53501233 30.74120331 285.52729607 C35.59972198 285.51570797 40.45800236 285.52788088 45.3164978 285.54391479 C57.38697876 285.58010434 69.45745434 285.58634226 81.52798462 285.58381653 C90.90386025 285.58210376 100.27954111 285.58927873 109.65536237 285.62379509 C114.48035902 285.64055641 119.30488019 285.63882222 124.12987471 285.62297237 C127.13930487 285.61715748 130.14851176 285.62794795 133.15790176 285.64321899 C134.54779328 285.64693176 135.9377229 285.64387621 137.3275795 285.63334846 C146.30822404 285.56988618 152.35902638 286.16728877 159.61795044 291.76045227 C164.17766441 297.27010665 164.34276658 302.64333293 164.04373169 309.63935852 C163.118189 315.88851141 160.70932386 318.46752674 155.85077095 322.20216274 C152.06006825 324.41854388 149.97298461 324.65161416 145.61938477 324.66183472 C144.94893887 324.66878025 144.27849297 324.67572577 143.58773053 324.68288177 C141.35380743 324.70109532 139.12095321 324.690904 136.88699341 324.68061829 C135.27997547 324.68768002 133.67296419 324.69642612 132.06596375 324.70672607 C127.70810511 324.72921078 123.35060988 324.72628113 118.99271536 324.7174046 C115.34754392 324.71228736 111.70244034 324.71959391 108.05727589 324.72687668 C99.44983609 324.74387545 90.84257354 324.74031323 82.23513794 324.72358704 C73.3770963 324.70669536 64.51954852 324.72245946 55.66156089 324.75480992 C48.04089633 324.78157969 40.4203848 324.78876106 32.79967797 324.78029484 C28.25530621 324.77538343 23.71123094 324.7774827 19.16689682 324.79808235 C14.88700778 324.81655379 10.60782263 324.81034235 6.3279705 324.78588295 C4.7656037 324.78090966 3.20318223 324.7842733 1.6408596 324.7970314 C-10.6064789 324.88905421 -21.55115195 322.98725145 -30.72579956 314.23310852 C-38.5521193 304.9044149 -40.78111381 295.15598322 -40.73649597 283.35021973 C-40.74032152 282.27323659 -40.74414707 281.19625345 -40.74808854 280.08663446 C-40.75839475 276.48330967 -40.75443083 272.88014493 -40.75045776 269.27680969 C-40.75480557 266.69104871 -40.75998895 264.10528902 -40.76594543 261.51953125 C-40.77868035 255.22786965 -40.78048759 248.93625074 -40.77814517 242.64457842 C-40.7763603 237.5285027 -40.77811529 232.41243991 -40.78236961 227.29636574 C-40.7829648 226.56750603 -40.78355999 225.83864632 -40.78417322 225.08769995 C-40.785385 223.60688 -40.78659914 222.12606005 -40.78781559 220.64524011 C-40.79868674 206.76445075 -40.79653081 192.8836857 -40.79043075 179.00289498 C-40.78526345 166.31627355 -40.79651283 153.62972894 -40.81552897 140.94312271 C-40.83492192 127.90476247 -40.84316072 114.86643854 -40.83940572 101.82806379 C-40.83749569 94.51276294 -40.83996171 87.19752745 -40.85412025 79.88223839 C-40.86730332 73.00149854 -40.8647542 66.12091469 -40.85170937 59.24017525 C-40.84934399 56.71749189 -40.85207684 54.19479772 -40.86033249 51.67212677 C-40.87080464 48.22293111 -40.86269484 44.7742506 -40.85002136 41.32507324 C-40.85739565 40.33176614 -40.86476993 39.33845905 -40.87236768 38.31505173 C-40.78313778 26.73547736 -37.42415044 17.68528149 -29.47579956 9.14717102 C-20.57100258 2.27305194 -11.12608415 0.043701 0 0 Z " fill="#13181F" transform="translate(1804.4757995605469,217.8528289794922)"/>
<path d="M0 0 C5.17710023 4.37177353 7.90224521 9.14668243 9.875 15.5625 C11.13002356 19.63849993 12.62443226 23.53812589 14.28686523 27.46118164 C16.88673546 33.67188195 19.30146769 39.93950717 21.66796875 46.2421875 C22.56078857 48.60769766 23.45369583 50.97317481 24.34667969 53.33862305 C24.80957397 54.56688812 25.27246826 55.7951532 25.74938965 57.06063843 C33.13241951 76.64907197 40.58709272 96.20649074 48.25 115.6875 C56.94406606 137.79856141 65.45682369 159.97646774 73.92254639 182.17584229 C75.32542681 185.85298953 76.730495 189.52929891 78.13555908 193.20561218 C82.10001409 203.57956858 86.05156963 213.95836905 89.9911499 224.34179688 C91.04360136 227.11488453 92.0972413 229.88751908 93.15087891 232.66015625 C94.93379237 237.35414497 96.71084492 242.05031687 98.48379517 246.74807739 C99.15624723 248.52774595 99.83035587 250.30678953 100.50619507 252.08517456 C101.43592478 254.53289923 102.35939533 256.98289438 103.28125 259.43359375 C103.55850418 260.15957764 103.83575836 260.88556152 104.12141418 261.63354492 C105.21931379 264.56961429 106 266.83718277 106 270 C106.66 270 107.32 270 108 270 C108.12632812 269.13117188 108.25265625 268.26234375 108.3828125 267.3671875 C108.97403024 264.14168314 109.81458843 261.22403227 110.875 258.125 C111.20242188 257.15820312 111.52984375 256.19140625 111.8671875 255.1953125 C112.94063595 252.16744757 114.05804038 249.16063718 115.19238281 246.15527344 C116.0369303 243.90144477 116.8623498 241.64132515 117.68359375 239.37890625 C117.97169922 238.58806641 118.25980469 237.79722656 118.55664062 236.98242188 C119.1421682 235.37384389 119.7255155 233.76447055 120.30664062 232.15429688 C121.75564507 228.18809096 123.28244091 224.30349292 125.03515625 220.4609375 C127.01641183 216.08496769 128.54271133 211.63533721 130 207.0625 C131.8125697 201.50357531 133.6916637 196.02814522 135.93359375 190.625 C137.37897362 187.06714186 138.71950522 183.47254313 140.0625 179.875 C140.30806641 179.21741699 140.55363281 178.55983398 140.80664062 177.88232422 C141.16725586 176.91576904 141.16725586 176.91576904 141.53515625 175.9296875 C141.77564697 175.28515625 142.0161377 174.640625 142.26391602 173.9765625 C142.76604873 172.62821542 143.26646463 171.27922805 143.76538086 169.9296875 C145.22806707 165.99064601 146.77459508 162.11012027 148.4375 158.25 C150.52187579 153.29492701 152.29782295 148.3064616 153.91015625 143.1796875 C154.76259779 140.69263582 155.67213484 138.28263227 156.65625 135.84765625 C160.04239852 127.46839989 163.22282094 119.00861611 166.4375 110.5625 C166.96531067 109.17599243 166.96531067 109.17599243 167.50378418 107.76147461 C177.2713408 82.09034635 186.91824692 56.38768086 195.95605469 30.44921875 C198.14044072 24.18669101 200.35650498 17.93676902 202.67578125 11.72265625 C203.05903564 10.69406494 203.44229004 9.66547363 203.8371582 8.60571289 C205.38582597 5.13543553 207.03111455 3.32696427 210 1 C210.66 0.34 211.32 -0.32 212 -1 C219.64943829 -3.69980175 225.55136212 -3.8274273 232.84765625 -0.34765625 C236.87868346 2.17630815 239.8794761 5.75895221 242 10 C243.07452802 18.20548669 242.12852311 24.66998936 238.96875 32.17578125 C238.32362701 33.76984266 237.679799 35.36442862 237.03710938 36.95947266 C236.70090576 37.78578186 236.36470215 38.61209106 236.01831055 39.46343994 C234.32003078 43.69376893 232.72486162 47.96216057 231.125 52.23046875 C230.45149268 54.01926524 229.77782435 55.80800112 229.10400391 57.59667969 C228.76153625 58.50687866 228.4190686 59.41707764 228.06622314 60.3548584 C216.76833986 90.37001457 205.22194523 120.28687557 193.625 150.1875 C193.22797882 151.21124725 192.83095764 152.23499451 192.42190552 153.2897644 C191.22015388 156.38852037 190.01830599 159.48723898 188.81640625 162.5859375 C188.41958145 163.60903519 188.02275665 164.63213287 187.61390686 165.68623352 C185.59804775 170.88285383 183.58102762 176.07901937 181.56201172 181.27441406 C179.59703699 186.33083184 177.63475154 191.38828582 175.67425537 196.44644165 C174.94388358 198.32930925 174.21250973 200.21178851 173.4800415 202.09384155 C168.36537965 215.23717701 168.36537965 215.23717701 163.79833984 228.57885742 C162.08144618 233.78571811 159.92672001 238.82679718 157.77734375 243.8671875 C155.21175585 249.90848011 152.98170288 255.95424531 150.96484375 262.19921875 C150.09764975 264.71653899 149.11777478 267.08612839 148 269.5 C145.96179923 273.90283212 144.49185279 278.42571991 142.9921875 283.03515625 C141.51783933 287.44078721 139.78526282 291.71289829 138 296 C137.53464844 297.16273438 137.06929687 298.32546875 136.58984375 299.5234375 C132.53031912 309.52895626 128.83193948 315.98949238 119 321 C111.09331744 324.074821 102.9905331 323.98174856 95.09375 320.96484375 C85.53214922 316.55865832 80.70510646 308.61562854 77.03536987 298.98881531 C76.57700241 297.7355822 76.57700241 297.7355822 76.109375 296.45703125 C75.76746124 295.55205399 75.42554749 294.64707672 75.07327271 293.7146759 C74.3388254 291.76722081 73.60944092 289.81785007 72.88470459 287.86676025 C71.32573394 283.67051207 69.7416235 279.48389188 68.1590271 275.29650879 C67.33521635 273.11623145 66.51265802 270.93548051 65.6913147 268.75427246 C61.51514635 257.67336178 57.20576054 246.64621373 52.875 235.625 C52.12797038 233.72132068 51.38106264 231.81759353 50.63427734 229.91381836 C49.52341103 227.08197946 48.412453 224.25017708 47.30093384 221.41859436 C44.72314439 214.85016177 42.1554794 208.27783662 39.59375 201.703125 C39.23612579 200.78546356 38.87850159 199.86780212 38.51004028 198.92233276 C37.14292264 195.41390134 35.77592008 191.90542626 34.4105835 188.39630127 C30.87736747 179.3159984 27.31813442 170.24651384 23.7109375 161.1953125 C23.38088715 160.36450165 23.05083679 159.5336908 22.71078491 158.67770386 C20.99904405 154.39552432 19.21640863 150.17358587 17.25 146 C15.10677705 141.42779105 13.56505209 136.76550411 12.02734375 131.9609375 C11.02784535 129.08025391 9.86037065 126.38246973 8.5625 123.625 C6.06617836 118.31840215 4.11855335 112.8891435 2.1875 107.35546875 C0.59180078 102.84656866 -1.18885516 98.42562005 -3 94 C-4.88485763 89.3306936 -6.76781186 84.66590546 -8.5 79.9375 C-9.52019669 77.18010239 -10.65584119 74.50916032 -11.87890625 71.8359375 C-13.95558405 67.1925846 -15.72248893 62.47398917 -17.4375 57.6875 C-20.32379393 49.7434588 -23.42388527 41.92443092 -26.79492188 34.171875 C-27.6473204 32.20328719 -28.48062097 30.22733316 -29.3125 28.25 C-29.82425781 27.05890625 -30.33601562 25.8678125 -30.86328125 24.640625 C-32.51655581 19.34560133 -33.08211423 13.98718315 -30.4375 8.875 C-27.61558756 3.79155489 -23.5772997 0.45386137 -18.5625 -2.375 C-11.90253581 -3.99938151 -5.99925251 -3.23135704 0 0 Z " fill="#13171E" transform="translate(624,221)"/>
<path d="M0 0 C6.19700027 5.41888503 8.86169994 11.694123 11.3828125 19.36328125 C11.75922379 20.45534882 12.13563507 21.54741638 12.52345276 22.6725769 C13.3251677 25.00500919 14.11843925 27.34035818 14.90390015 29.67831421 C16.55747837 34.59962386 18.25219868 39.50644566 19.94444275 44.41456604 C20.78990244 46.86828488 21.63322317 49.32274179 22.47438049 51.77793884 C25.73972313 61.30185148 29.14486253 70.76365277 32.6875 80.1875 C33.19893291 81.55223122 33.71032602 82.91697736 34.22167969 84.28173828 C35.25869621 87.04660993 36.29809674 89.81057442 37.33837891 92.57421875 C39.17981394 97.47180245 41.00266311 102.37624416 42.82421875 107.28125 C43.15463669 108.17084412 43.48505463 109.06043823 43.82548523 109.97698975 C44.50209818 111.79873821 45.17868795 113.62049528 45.85525513 115.44226074 C50.28610422 127.37048044 54.72895788 139.29401218 59.2109375 151.203125 C59.55248871 152.11125443 59.89403992 153.01938385 60.24594116 153.95503235 C61.87052345 158.27410603 63.49730896 162.59232245 65.12841797 166.90893555 C67.94846534 174.3905949 70.7053135 181.86727381 73.14257812 189.48510742 C74.05958887 192.17477931 75.12665847 194.76537582 76.25 197.375 C81.14873756 208.87110858 85.33081722 220.74140021 89.1875 232.625 C90.41052149 236.38485646 91.81101281 239.99378684 93.375 243.625 C95.60700861 248.86083328 97.50211905 254.16999005 99.3125 259.5625 C99.5791748 260.34898926 99.84584961 261.13547852 100.12060547 261.94580078 C101.15260578 265.06622774 102 267.69122493 102 271 C102.66 271 103.32 271 104 271 C104.103125 269.845 104.20625 268.69 104.3125 267.5 C104.88597024 263.04398124 106.28482227 259.1323201 108 255 C108.96264731 252.64747863 109.92196762 250.29390866 110.875 247.9375 C111.13410156 247.29804443 111.39320313 246.65858887 111.66015625 245.99975586 C113.97106131 240.22320821 115.93344489 234.36322427 117.82421875 228.4375 C119.04484755 224.86888424 120.50810626 221.4626181 122 218 C122.6488524 216.11219715 123.2748987 214.2163612 123.875 212.3125 C125.6039112 207.01315533 127.66095891 201.92523003 129.84765625 196.80078125 C130.84199159 194.38404079 131.70657519 191.98785745 132.5 189.5 C133.5752268 186.13692951 134.8531066 182.93028825 136.25 179.6875 C138.34761477 174.72335009 140.18706558 169.71790016 141.9375 164.625 C145.35664702 154.69621054 148.98173162 144.84807752 152.625 135 C157.25564531 122.47511305 161.85081709 109.93875325 166.375 97.375 C169.90938567 87.5600459 173.45093176 77.74789107 177.01953125 67.9453125 C177.36227081 67.00353653 177.70501038 66.06176056 178.05813599 65.09144592 C179.78490843 60.34791471 181.51414594 55.60530096 183.24707031 50.86401367 C186.23697072 42.67366846 189.20404114 34.47991563 192.02734375 26.23046875 C192.47810898 24.92442307 192.92903057 23.61843134 193.38012695 22.3125 C194.17758131 19.99035796 194.9624712 17.66383985 195.73120117 15.33203125 C198.01257457 8.71062533 200.60847461 2.40750452 207.02539062 -1.11035156 C213.22833833 -3.79364916 218.71630301 -3.63827384 225.0625 -1.4375 C230.00894516 0.68886819 233.19123868 3.40574356 236 8 C236.875 10.4375 236.875 10.4375 237 13 C237.07637695 14.15790039 237.15275391 15.31580078 237.23144531 16.50878906 C237.21222828 21.89657331 235.34778722 26.45168493 233.421875 31.421875 C232.8701059 32.8937326 232.8701059 32.8937326 232.30718994 34.39532471 C231.13371133 37.51833699 229.94254634 40.63422534 228.75 43.75 C227.57812666 46.84602466 226.40996286 49.94342734 225.24255371 53.0411377 C224.49114529 55.0342358 223.73798996 57.02667624 222.98303223 59.01843262 C220.80542467 64.78094848 218.77848565 70.567104 216.88500977 76.4296875 C215.94440736 79.16145637 214.86295494 81.79531062 213.73046875 84.453125 C210.32274929 92.46366371 207.38309824 100.64448825 204.38821411 108.81585693 C202.5098152 113.93942191 200.62193166 119.05949064 198.734375 124.1796875 C198.34351212 125.24031403 197.95264923 126.30094055 197.54994202 127.39370728 C193.42784768 138.56929945 189.25082366 149.72408958 185.0625 160.875 C184.6923175 161.86062927 184.32213501 162.84625854 183.94073486 163.86175537 C182.43518755 167.86988228 180.92942456 171.87792797 179.42312622 175.88577271 C176.71651195 183.08839543 174.0168921 190.293615 171.3203125 197.5 C164.01450465 217.01950091 156.68071376 236.52639095 149.21118164 255.98388672 C146.46615144 263.13819361 143.75512546 270.30259532 141.125 277.5 C138.89284222 283.59828228 136.63335495 289.68483239 134.3125 295.75 C134.03873535 296.47767578 133.7649707 297.20535156 133.48291016 297.95507812 C129.46968266 308.35596536 123.78755542 315.86844453 114.125 321.75 C107.37727405 324.40774764 98.92414545 324.12266943 92.05078125 322.15625 C79.3490857 316.39866672 75.33928493 304.7974879 70.7421875 292.5859375 C70.29166016 291.39911125 70.29166016 291.39911125 69.83203125 290.18830872 C69.18361259 288.47942094 68.53632747 286.77010269 67.89007568 285.06039429 C66.11922988 280.37560154 64.34008396 275.69395793 62.5625 271.01171875 C62.19067596 270.03155289 61.81885193 269.05138702 61.4357605 268.04151917 C57.65192033 258.07100552 53.83400486 248.11364164 50.01412964 238.15689087 C43.52327221 221.2370495 37.06458189 204.30565399 30.67724609 187.34643555 C30.15609214 185.96396673 29.63477359 184.58155995 29.11328125 183.19921875 C28.86203995 182.53322159 28.61079865 181.86722443 28.35194397 181.18104553 C26.37220964 175.94893287 24.34189104 170.73730242 22.3046875 165.52734375 C20.02088367 159.6801736 17.81692615 153.82469073 15.8125 147.875 C12.8801609 139.35357519 9.77312214 130.90091011 6.61605835 122.46075439 C6.08645568 121.04490045 5.55780715 119.62868919 5.03018188 118.21209717 C2.4785726 111.36687066 -0.11647982 104.58107455 -3.1574707 97.93432617 C-4.49989311 94.85231726 -5.48624821 91.70564756 -6.5 88.5 C-7.81911655 84.40912015 -9.170049 80.39602471 -11 76.5 C-13.12647391 71.97266844 -14.6079628 67.25720589 -16.14453125 62.5078125 C-17.26717367 59.07789885 -18.46577951 55.76640491 -20 52.5 C-22.089807 48.04342363 -23.5645237 43.41269834 -25.06323242 38.73413086 C-26.42105799 34.55576227 -28.01353954 30.57712928 -29.8125 26.5625 C-32.61621344 19.92586186 -33.04410303 15.27983066 -30.5625 8.375 C-28.06846399 3.20814404 -24.0585549 0.49365383 -19 -2 C-12.3535846 -4.04889497 -6.01642027 -3.38134461 0 0 Z " fill="#12171E" transform="translate(1480,221)"/>

<path d="M0 0 C0.33 0 0.66 0 1 0 C1.09280076 10.57050148 1.16381619 21.14090557 1.20724869 31.71173191 C1.22809727 36.62054934 1.25636503 41.52908745 1.30175781 46.43774414 C1.34531294 51.17750216 1.36915763 55.91699199 1.37950897 60.65693474 C1.38688301 62.46260739 1.40128287 64.26826586 1.42292023 66.07382393 C1.4520832 68.60886133 1.4559507 71.14279957 1.45410156 73.67797852 C1.47567322 74.79036896 1.47567322 74.79036896 1.49768066 75.92523193 C1.45394291 81.48989927 0.08420651 84.53134442 -3 89 C-7.79053091 92.79250364 -11.48272107 94.13079678 -17.49316406 94.11352539 C-18.81408051 94.11341209 -18.81408051 94.11341209 -20.16168213 94.11329651 C-21.10348328 94.10813522 -22.04528442 94.10297394 -23.015625 94.09765625 C-24.47207428 94.09553383 -24.47207428 94.09553383 -25.95794678 94.09336853 C-29.05532935 94.08777663 -32.15263932 94.07522559 -35.25 94.0625 C-37.35156146 94.05748395 -39.45312404 94.05292123 -41.5546875 94.04882812 C-46.70315292 94.03780985 -51.85156416 94.02055074 -57 94 C-58.06129849 76.87902788 -58.06129849 76.87902788 -51.375 69.1875 C-50.17397408 67.67097279 -48.97347075 66.15403158 -47.7734375 64.63671875 C-47.14920898 63.87536621 -46.52498047 63.11401367 -45.88183594 62.32958984 C-42.78035822 58.49016323 -39.90460864 54.48904481 -37 50.5 C-35.82371658 48.90565953 -34.64663448 47.31190799 -33.46875 45.71875 C-30.11530808 41.16765024 -26.80252587 36.58812687 -23.5 32 C-16.74163276 22.61164218 -9.89398256 13.2892087 -3 4 C-2.46584473 3.25927246 -1.93168945 2.51854492 -1.38134766 1.75537109 C-0.92550293 1.17609863 -0.4696582 0.59682617 0 0 Z " fill="#DE4D29" transform="translate(498,449)"/>
<path d="M0 0 C7.02801774 -0.37758847 12.75475282 1.28264033 18.0546875 6.02734375 C23.1564255 11.54102333 25.5096739 16.42943306 25.24609375 24.1171875 C24.36449433 31.66765993 20.80475122 36.45551122 15.00390625 41.19140625 C8.72589177 45.61455282 1.51555883 44.77668168 -5.74609375 43.56640625 C-11.64554564 41.0704843 -15.56697753 37.65251357 -18.43359375 31.87890625 C-21.11219433 24.99767374 -20.78855474 18.7293148 -17.90625 11.97265625 C-15.04839554 6.37960203 -10.71172455 2.3964757 -4.68359375 0.44140625 C-3.12221875 0.29616206 -1.56095594 0.14968071 0 0 Z " fill="#E04E2A" transform="translate(558.99609375,499.80859375)"/>
<path d="M0 0 C0.66 0.33 1.32 0.66 2 1 C1.57476184 2.60746056 1.13429874 4.21089836 0.6875 5.8125 C0.44386719 6.70582031 0.20023438 7.59914063 -0.05078125 8.51953125 C-1.0200819 11.05247738 -1.95009604 12.2716496 -4 14 C-4 12.68 -4 11.36 -4 10 C-3.34 10 -2.68 10 -2 10 C-1.855625 8.906875 -1.71125 7.81375 -1.5625 6.6875 C-1 3 -1 3 0 0 Z " fill="#32353B" transform="translate(1611,517)"/>
<path d="M0 0 C5.71562208 4.37792329 5.71562208 4.37792329 7 7.1875 C7 7.785625 7 8.38375 7 9 C6.34 9.66 5.68 10.32 5 11 C4.35165346 9.730447 3.70642185 8.45930294 3.0625 7.1875 C2.70285156 6.47980469 2.34320312 5.77210938 1.97265625 5.04296875 C1 3 1 3 0 0 Z " fill="#1E2229" transform="translate(1956,222)"/>
<path d="M0 0 C4.58826282 1.93726652 6.80528594 3.48864333 9 8 C6.50638429 6.79618552 4.31856917 5.54571278 2 4 C2 3.34 2 2.68 2 2 C1.34 2 0.68 2 0 2 C0 1.34 0 0.68 0 0 Z " fill="#202329" transform="translate(1110,506)"/>
<path d="M0 0 C0.66 0.66 1.32 1.32 2 2 C1.625 5.125 1.625 5.125 1 8 C0.01 8 -0.98 8 -2 8 C-1.34 5.36 -0.68 2.72 0 0 Z " fill="#262A30" transform="translate(1636,347)"/>
<path d="M0 0 C0.66 0.33 1.32 0.66 2 1 C0.37660195 2.70884005 -1.29319053 4.37446717 -3 6 C-3.66 6 -4.32 6 -5 6 C-5 6.66 -5 7.32 -5 8 C-5.66 7.67 -6.32 7.34 -7 7 C-2.25 1.125 -2.25 1.125 0 0 Z " fill="#E26043" transform="translate(131,220)"/>
<path d="M0 0 C0.66 0.33 1.32 0.66 2 1 C1.01 4.3 0.02 7.6 -1 11 C-1.33 11 -1.66 11 -2 11 C-2.19622241 6.78121808 -1.80230168 3.82989106 0 0 Z " fill="#404247" transform="translate(760,514)"/>
<path d="M0 0 C0.66 0 1.32 0 2 0 C1.67 1.98 1.34 3.96 1 6 C-0.32 6.33 -1.64 6.66 -3 7 C-1.125 1.125 -1.125 1.125 0 0 Z " fill="#34383E" transform="translate(1587,482)"/>
<path d="M0 0 C0.99 0.33 1.98 0.66 3 1 C2.67 2.65 2.34 4.3 2 6 C1.34 6 0.68 6 0 6 C0 6.66 0 7.32 0 8 C-0.66 8 -1.32 8 -2 8 C-1.34 5.36 -0.68 2.72 0 0 Z " fill="#30343A" transform="translate(785,345)"/>
<path d="M0 0 C0.66 0.99 1.32 1.98 2 3 C0.625 6.6875 0.625 6.6875 -1 10 C-1.66 9.34 -2.32 8.68 -3 8 C-2.01 5.36 -1.02 2.72 0 0 Z " fill="#24282F" transform="translate(1365,325)"/>
<path d="M0 0 C0.66 0.99 1.32 1.98 2 3 C1.34 4.32 0.68 5.64 0 7 C-0.99 7 -1.98 7 -3 7 C-2.38722388 4.03824877 -1.74627478 2.61941217 0 0 Z " fill="#2F3339" transform="translate(1453,224)"/>
<path d="M0 0 C0.66 0.66 1.32 1.32 2 2 C1.625 5.125 1.625 5.125 1 8 C0.01 8 -0.98 8 -2 8 C-1.34 5.36 -0.68 2.72 0 0 Z " fill="#282C32" transform="translate(792,327)"/>
<path d="M0 0 C2.64 0.33 5.28 0.66 8 1 C7.67 1.66 7.34 2.32 7 3 C4.69 2.67 2.38 2.34 0 2 C0 1.34 0 0.68 0 0 Z " fill="#E55836" transform="translate(132,540)"/>
<path d="M0 0 C0.66 1.32 1.32 2.64 2 4 C1 7 1 7 -3 10 C-2.01 6.7 -1.02 3.4 0 0 Z " fill="#42444A" transform="translate(759,414)"/>
<path d="M0 0 C0.99 0 1.98 0 3 0 C3.625 2.875 3.625 2.875 4 6 C3.34 6.66 2.68 7.32 2 8 C1.34 5.36 0.68 2.72 0 0 Z " fill="#21242B" transform="translate(1465,285)"/>
</svg>
