<?xml version="1.0" encoding="UTF-8"?>
<svg version="1.1" xmlns="http://www.w3.org/2000/svg" width="1396" height="867">
<path d="M0 0 C4.08924289 0.49804881 5.8342987 1.36778564 8.4375 4.546875 C9.33275391 5.63452148 9.33275391 5.63452148 10.24609375 6.74414062 C12.92177279 10.18557637 15.4885974 13.68725651 18 17.25 C22.72875874 23.87773634 27.53752604 30.43530628 32.4375 36.9375 C39.69409002 46.57476569 46.8575643 56.27796228 54 66 C61.11102188 75.67536457 68.2350054 85.33881653 75.45483398 94.93334961 C79.39885002 100.18134572 83.29751275 105.46186938 87.1875 110.75 C88.36585082 112.34898383 89.54423533 113.94794283 90.72265625 115.546875 C92.73744788 118.28144321 94.74532754 121.02078445 96.74609375 123.765625 C97.53883561 124.84391684 98.33178594 125.92205547 99.125 127 C99.78757812 127.9075 100.45015625 128.815 101.1328125 129.75 C103.81310074 132.9798034 105.76075579 134.78906482 109.9375 135.5 C116.28531984 134.46362125 120.0492613 127.49810899 123.6875 122.5625 C124.212229 121.85657715 124.73695801 121.1506543 125.27758789 120.42333984 C129.37922532 114.88702948 133.39906772 109.29449395 137.38671875 103.67578125 C144.87840631 93.12179804 152.49618954 82.65915082 160.1875 72.25 C165.00285057 65.73275702 169.75864444 59.17886726 174.453125 52.57421875 C179.0326011 46.13501087 183.67868825 39.74343979 188.30908203 33.34082031 C190.00945942 30.98690487 191.70638246 28.63053624 193.40234375 26.2734375 C210.55905185 2.44094815 210.55905185 2.44094815 213 0 C215.5 -0.125 215.5 -0.125 218 0 C219.78729433 1.78729433 219.16487593 4.44126376 219.19287109 6.8581543 C219.20893402 8.11423996 219.22499695 9.37032562 219.24154663 10.66447449 C219.2530456 12.05104898 219.26365217 13.43763111 219.2734375 14.82421875 C219.27876118 15.52294413 219.28408485 16.2216695 219.28956985 16.94156837 C219.31635891 20.65349862 219.33569874 24.36539488 219.35009766 28.07739258 C219.36333448 31.12783489 219.3909835 34.17759183 219.43212891 37.2277832 C219.4819972 40.92489462 219.50628652 44.62139342 219.51332474 48.31882668 C219.51996089 49.71682222 219.53497845 51.1148083 219.55921555 52.51260948 C219.77977262 66.02470143 216.77826049 77.49449202 208.4375 88.3125 C207.37067012 89.76010456 206.30427609 91.20803041 205.23828125 92.65625 C204.42931396 93.73712891 204.42931396 93.73712891 203.60400391 94.83984375 C201.04586812 98.28495569 198.58886796 101.79968708 196.125 105.3125 C195.12782889 106.72541905 194.13042914 108.13817674 193.1328125 109.55078125 C189.74364179 114.35909995 186.37134791 119.17917547 183 124 C177.17876317 132.32401819 171.331458 140.62918349 165.46777344 148.92333984 C162.97679014 152.44767516 160.48855097 155.97394701 158 159.5 C157.00001278 160.91667568 156.00001278 162.33334236 155 163.75 C154.505 164.45125 154.01 165.1525 153.5 165.875 C152 168 150.5 170.125 149 172.25 C148.25713745 173.30247925 148.25713745 173.30247925 147.49926758 174.3762207 C146.50193913 175.78898086 145.50438152 177.20157927 144.5065918 178.61401367 C141.9637874 182.21413964 139.42536133 185.81722547 136.89453125 189.42578125 C117.8783113 216.5130304 117.8783113 216.5130304 112.625 217.875 C108.46007006 218.01861827 107.33209616 217.35544729 104 215 C96.66942697 207.39613806 90.83736792 197.94324633 84.70117188 189.37451172 C81.99584119 185.59838568 79.28048153 181.82952703 76.5625 178.0625 C76.03503174 177.33119873 75.50756348 176.59989746 74.96411133 175.84643555 C70.27079056 169.35120851 65.52208703 162.89737334 60.75610352 156.45532227 C60.20752686 155.71338623 59.6589502 154.9714502 59.09375 154.20703125 C58.56910156 153.5001416 58.04445312 152.79325195 57.50390625 152.06494141 C56.51139503 150.70217194 55.53937283 149.32421145 54.58984375 147.93115234 C52.05549881 144.03893584 52.05549881 144.03893584 48 142 C46.12934133 143.87065867 46.86514496 147.04258894 46.8581543 149.53588867 C46.85467987 150.21890045 46.85120544 150.90191223 46.84762573 151.60562134 C46.84025567 153.09415555 46.83491698 154.58270086 46.83133507 156.07124901 C46.82418343 158.42961456 46.80852509 160.78777035 46.78999329 163.14607239 C46.73747529 169.8532923 46.68957926 176.56040137 46.67407227 183.26782227 C46.66397254 187.36704157 46.63459251 191.46573952 46.59275246 195.56475258 C46.58045974 197.125553 46.57531805 198.68642716 46.57755089 200.2472744 C46.57991235 202.43779121 46.55767489 204.62682305 46.5300293 206.81713867 C46.52416306 208.06210617 46.51829681 209.30707367 46.51225281 210.58976746 C45.74532803 215.69543367 43.24667067 218.74297644 39.67749023 222.34179688 C36.30363301 224.43126877 34.11272432 224.51629535 30.16015625 224.53125 C28.84982422 224.53640625 27.53949219 224.5415625 26.18945312 224.546875 C25.51148682 224.53849609 24.83352051 224.53011719 24.13500977 224.52148438 C22.07122766 224.50009047 20.01093926 224.52129125 17.94726562 224.546875 C16.63564453 224.54171875 15.32402344 224.5365625 13.97265625 224.53125 C12.77906494 224.52673828 11.58547363 224.52222656 10.35571289 224.51757812 C6.23993059 223.88276849 4.16412546 222.69277717 1 220 C-2.16296245 215.00807706 -2.42678713 211.00129378 -2.3742218 205.2882843 C-2.37819621 204.4236449 -2.38217061 203.5590055 -2.38626546 202.66816491 C-2.39587199 199.77771297 -2.38408037 196.88775248 -2.37231445 193.99731445 C-2.3747429 191.92250384 -2.37846274 189.8476944 -2.38337708 187.77288818 C-2.3927806 182.14299378 -2.38336599 176.51327338 -2.37004495 170.88339257 C-2.35873095 164.99511199 -2.3628378 159.10683997 -2.36479187 153.21855164 C-2.36567465 143.33341629 -2.35459599 133.44834955 -2.33618164 123.56323242 C-2.31499674 112.12514097 -2.31150797 100.68714991 -2.3177436 89.24904281 C-2.32343177 78.2531497 -2.31779918 67.25729203 -2.30657005 56.26140404 C-2.30191861 51.57764215 -2.30105255 46.8939019 -2.3031559 42.21013832 C-2.30503514 36.70013931 -2.29696302 31.19024294 -2.2810955 25.68026733 C-2.27684201 23.65454216 -2.27600921 21.62880658 -2.27878571 19.60307884 C-2.28199273 16.84552701 -2.2729633 14.08828476 -2.26069641 11.33076477 C-2.26447573 10.52260592 -2.26825506 9.71444708 -2.27214891 8.88179857 C-2.24187821 5.05516642 -2.17441559 3.26162339 0 0 Z " fill="#FDB916" transform="translate(88,288)"/>
<path d="M0 0 C1.29609695 -0.0098568 1.29609695 -0.0098568 2.61837769 -0.01991272 C5.47890316 -0.03962267 8.33937595 -0.05130872 11.19995117 -0.0612793 C12.1815238 -0.06535482 13.16309643 -0.06943035 14.17441368 -0.07362938 C19.37880619 -0.09448917 24.5831724 -0.1087863 29.78759766 -0.11816406 C35.1288948 -0.12917476 40.46976915 -0.16351277 45.81091785 -0.20333576 C49.94543659 -0.22966616 54.07985757 -0.2378708 58.21445274 -0.24144554 C60.18096429 -0.2462762 62.14747253 -0.25778781 64.11390114 -0.27648354 C83.90912505 -0.4528528 102.22116332 2.38629427 117.17260742 16.6887207 C130.42682142 31.2958735 131.17428002 47.4185762 130.60961914 66.23217773 C129.83736678 78.9227881 123.32738814 90.2958277 114.26635742 99.0012207 C107.21458896 104.4114618 98.68848514 107.99220548 90.43041992 111.17700195 C91.31729492 111.73387695 92.20416992 112.29075195 93.11791992 112.86450195 C101.79105735 118.69398777 107.51482188 127.63502423 112.30541992 136.73950195 C112.75812256 137.59938721 113.2108252 138.45927246 113.67724609 139.34521484 C120.5899384 152.93846108 126.02203323 167.24962538 131.68305969 181.39533997 C134.10504226 187.42953494 136.65608152 193.398245 139.28442383 199.34521484 C141.32413655 204.38539972 142.10348753 208.11820693 140.36791992 213.42700195 C137.88893079 216.94556717 136.40330813 218.39605207 132.43041992 220.17700195 C121.60201812 221.51182381 121.60201812 221.51182381 116.95117188 218.65307617 C113.67204541 215.43206885 112.50991149 212.29848164 110.97729492 208.02856445 C110.67571976 207.22768906 110.37414459 206.42681366 110.06343079 205.60166931 C109.42123792 203.89131267 108.78586663 202.17838172 108.1567688 200.46316528 C107.17388012 197.7841769 106.17308315 195.11255269 105.16650391 192.44238281 C103.84411637 188.93391078 102.52667253 185.42365941 101.21313477 181.91186523 C90.30294116 148.67832828 90.30294116 148.67832828 67.24908447 124.39559937 C58.76727358 120.72864552 48.9805033 120.86064355 39.88354492 120.76293945 C38.74632996 120.7435733 37.60911499 120.72420715 36.43743896 120.70425415 C32.85183911 120.64509999 29.26620601 120.59833243 25.68041992 120.55200195 C23.2298861 120.513763 20.77936487 120.47470796 18.32885742 120.43481445 C12.36282445 120.33945231 6.39671384 120.25422277 0.43041992 120.17700195 C0.43708176 121.30373322 0.44374359 122.43046448 0.4506073 123.59133911 C0.51144672 134.21449592 0.55640622 144.83761733 0.58585644 155.46090889 C0.60150612 160.92233675 0.62273188 166.38362385 0.65673828 171.8449707 C0.68935628 177.11638649 0.70727819 182.38766695 0.71505165 187.65917587 C0.72059075 189.66940312 0.73140726 191.67962305 0.74761009 193.68979263 C0.76941662 196.50746868 0.77238548 199.324587 0.77099609 202.14233398 C0.78178192 202.97167953 0.79256775 203.80102509 0.80368042 204.65550232 C0.77745987 209.57622506 0.12016998 212.89591263 -2.56958008 217.17700195 C-6.49028181 220.85265982 -10.8611405 220.61730527 -15.97583008 220.46606445 C-20.14456723 220.00147628 -22.29872846 218.46499259 -25.17077065 215.55421734 C-27.12717038 212.22940165 -26.98456739 209.14021348 -26.95053101 205.39155579 C-26.95521098 204.60227902 -26.95989095 203.81300226 -26.96471274 202.99980801 C-26.97668924 200.35207794 -26.96719506 197.70486293 -26.95776367 195.05712891 C-26.96182836 193.15983274 -26.96716966 191.26253894 -26.97369385 189.36524963 C-26.98739011 184.20796304 -26.98205802 179.05085617 -26.97255659 173.89356637 C-26.96496643 168.49521665 -26.97200433 163.09688242 -26.97671509 157.6985321 C-26.98217685 148.62695554 -26.97497242 139.55545217 -26.96069336 130.48388672 C-26.94439064 120.00590767 -26.94963638 109.52810398 -26.96617258 99.05012923 C-26.97980481 90.05124105 -26.98169786 81.05240555 -26.97385657 72.05351037 C-26.96918645 66.68041786 -26.96853655 61.30740762 -26.97846603 55.93432045 C-26.98715777 50.87735649 -26.98107341 45.82061737 -26.96378326 40.7636776 C-26.95982915 38.9114049 -26.96093397 37.05911317 -26.96757126 35.20684814 C-27.03087413 15.73979597 -27.03087413 15.73979597 -21.81958008 7.36450195 C-15.32879282 1.05401434 -8.74068282 0.02890985 0 0 Z M0.43041992 29.17700195 C-0.28807779 32.41400793 -0.28807779 32.41400793 -0.13720703 35.98681641 C-0.13793716 36.65078934 -0.1386673 37.31476227 -0.13941956 37.99885559 C-0.13595293 40.18018047 -0.09714321 42.35933436 -0.05786133 44.5402832 C-0.04852972 46.05770196 -0.04141525 47.57513584 -0.03642273 49.09257507 C-0.01737974 53.0763242 0.03169609 57.05915422 0.08709717 61.0425415 C0.13834895 65.11132373 0.16110386 69.18025524 0.1862793 73.24926758 C0.23981894 81.22559968 0.32509726 89.20118632 0.43041992 97.17700195 C8.55044961 97.22365937 16.67042183 97.25903882 24.79055309 97.2806263 C28.56240311 97.29099522 32.33416037 97.30502585 36.10595703 97.32788086 C39.7564362 97.34985842 43.40682703 97.36162215 47.05736732 97.36675644 C48.43938904 97.37040808 49.82140677 97.37753638 51.20339012 97.38846207 C66.27285661 97.50269221 80.3631573 96.61662565 92.57495117 87.01293945 C100.44535737 79.22537964 103.28991151 68.95399744 103.43041992 58.17700195 C102.71297412 47.88032605 99.82976397 39.12866767 92.36791992 31.80200195 C82.5018225 23.95457354 71.23506561 23.55983575 59.12182617 23.6105957 C57.5815341 23.60534781 56.04124523 23.5990671 54.5009613 23.59181213 C51.29801117 23.58148349 48.09550756 23.58586689 44.89257812 23.60058594 C40.79451485 23.61788166 36.6978397 23.59410888 32.59993076 23.55909634 C29.42995476 23.53713094 26.26031266 23.53855956 23.09028435 23.54686165 C21.57884115 23.54767938 20.06737302 23.54085008 18.55600166 23.52609062 C16.4475934 23.50863053 14.34170598 23.52318619 12.23339844 23.54589844 C11.03715347 23.5468602 9.84090851 23.54782196 8.6084137 23.54881287 C4.40255273 24.38017886 2.94532103 25.73746099 0.43041992 29.17700195 Z " fill="#4C3E79" transform="translate(771.569580078125,289.822998046875)"/>
<path d="M0 0 C1.53719948 -0.0129007 1.53719948 -0.0129007 3.10545349 -0.02606201 C4.22400726 -0.03032196 5.34256104 -0.03458191 6.49501038 -0.03897095 C8.26874275 -0.05123718 8.26874275 -0.05123718 10.07830811 -0.06375122 C13.99331825 -0.08857552 17.90832081 -0.10526565 21.82337952 -0.11953735 C23.17293873 -0.1248993 24.52249787 -0.13027681 25.87205696 -0.13566971 C31.48502013 -0.15728212 37.0979805 -0.17601977 42.71097469 -0.1872921 C50.74845967 -0.2035421 58.78546218 -0.23676321 66.82276529 -0.29369295 C72.4789283 -0.33238941 78.1349622 -0.35192407 83.7912541 -0.35721266 C87.16797039 -0.36086511 90.54417114 -0.37287443 93.92074394 -0.4053154 C97.68676171 -0.43681422 101.45155258 -0.43702623 105.21766663 -0.42959595 C106.33419617 -0.44600128 107.45072571 -0.46240662 108.60108948 -0.47930908 C116.16943206 -0.41804407 116.16943206 -0.41804407 120.08999634 2.56536865 C123.47470962 7.35032128 123.56682058 11.38606865 122.92103577 17.15390015 C120.85659181 21.28278807 119.17350682 23.44542662 114.92103577 25.15390015 C112.78457642 25.40443993 112.78457642 25.40443993 110.44276428 25.40545654 C109.55114594 25.41083939 108.65952759 25.41622223 107.7408905 25.42176819 C106.7703775 25.4176442 105.7998645 25.4135202 104.79994202 25.40927124 C103.7719046 25.41289169 102.74386719 25.41651215 101.68467712 25.42024231 C99.4529967 25.42713477 97.22129943 25.42964203 94.98960876 25.42829514 C91.45955464 25.4273311 87.92980599 25.44025699 84.39979553 25.45727539 C74.36360528 25.50359155 64.32744638 25.5281658 54.29115295 25.53475952 C48.15265392 25.53976526 42.01447435 25.5639659 35.87608337 25.60008621 C33.53489599 25.60990438 31.19366477 25.61220524 28.85246277 25.60691452 C25.58200251 25.59986932 22.31249926 25.61707381 19.04212952 25.63973999 C18.07161652 25.63156754 17.10110352 25.62339508 16.10118103 25.61497498 C10.92831412 25.66425385 10.92831412 25.66425385 6.32258606 27.80194092 C4.52973461 30.81054755 4.40358578 32.80024866 4.37513733 36.29940796 C4.34555939 38.1608847 4.34555939 38.1608847 4.31538391 40.05996704 C4.31372089 41.40898596 4.31248995 42.75800546 4.31166077 44.10702515 C4.29667615 45.4913832 4.2799484 46.87572338 4.2615509 48.26004028 C4.21789558 51.89650298 4.19788273 55.53272454 4.18281555 59.16940308 C4.16323758 62.88313037 4.12126848 66.5965975 4.08119202 70.31015015 C4.0059099 77.59133017 3.9556068 84.87240094 3.92103577 92.15390015 C5.16274033 92.14279709 6.40444489 92.13169403 7.68377686 92.12025452 C19.38147374 92.01892838 31.07908168 91.94395845 42.77711773 91.89483929 C48.79134081 91.86873764 54.80520983 91.83332822 60.81922913 91.77670288 C66.62233781 91.72240487 72.42510578 91.69248389 78.22844887 91.67951393 C80.44328488 91.67027019 82.6581021 91.65221936 84.8727932 91.62524986 C87.97351354 91.58898995 91.07282332 91.58395366 94.17372131 91.58627319 C95.09081879 91.56829681 96.00791626 91.55032043 96.95280457 91.53179932 C101.4743888 91.56843578 103.31211884 91.67214067 106.96774292 94.56437683 C110.54867496 99.31169724 110.43417592 103.33525734 109.92103577 109.15390015 C108.28382056 113.08321665 106.79094598 114.55603454 102.92103577 116.15390015 C100.88272476 116.3999958 100.88272476 116.3999958 98.68159485 116.39440918 C97.84309494 116.39715851 97.00459503 116.39990784 96.14068604 116.40274048 C94.77367302 116.39195465 94.77367302 116.39195465 93.37904358 116.38095093 C92.41285599 116.38124298 91.4466684 116.38153503 90.45120239 116.38183594 C87.25876372 116.380443 84.06655865 116.36488332 80.87416077 116.34921265 C78.66027453 116.34548239 76.44638665 116.34263548 74.23249817 116.34063721 C68.40619853 116.33300174 62.57999864 116.31335391 56.7537384 116.29122925 C50.80821583 116.27076901 44.86267715 116.2616351 38.91712952 116.2515564 C27.25172111 116.23010801 15.58638674 116.19597303 3.92103577 116.15390015 C3.95907344 125.47270926 4.0184064 134.79106838 4.10493851 144.10955429 C4.14444966 148.43652617 4.17662011 152.76329343 4.19203186 157.09042358 C4.20717476 161.26631547 4.24157739 165.44164499 4.28934479 169.61728668 C4.30418318 171.21043256 4.31207819 172.80365872 4.31291962 174.39687347 C4.3152838 176.62866688 4.34231515 178.85889911 4.37513733 181.09042358 C4.38401978 182.3606134 4.39290222 183.63080322 4.40205383 184.93948364 C4.72357392 188.14194403 4.72357392 188.14194403 6.31309509 190.56422424 C10.43907633 193.07922507 14.45280972 192.69903928 19.19398499 192.65219116 C20.76048294 192.66046936 20.76048294 192.66046936 22.35862732 192.66891479 C24.62630711 192.67824112 26.89403928 192.67833479 29.16172409 192.67032051 C32.75128654 192.65771664 36.34007707 192.66895735 39.92961121 192.68635559 C46.25667337 192.71309549 52.58354723 192.7186499 58.91065979 192.71725464 C69.03117135 192.71502888 79.15144947 192.72912327 89.27186966 192.7728405 C92.80722023 192.78268526 96.34220512 192.77395704 99.87754822 192.7641449 C102.04813375 192.77028956 104.21871728 192.77720145 106.38929749 192.78500366 C107.37132141 192.77728439 108.35334534 192.76956512 109.36512756 192.76161194 C114.61641774 192.80055596 118.42492442 193.1201611 122.92103577 196.15390015 C125.55237134 200.10090351 125.98355307 203.4494731 125.92103577 208.15390015 C125.11905253 211.64252721 123.78629135 214.34698882 121.12867355 216.82540321 C118.46562019 218.42795697 116.88023465 218.53096428 113.78633118 218.53485107 C112.7490387 218.54331055 111.71174622 218.55177002 110.64302063 218.56048584 C109.51047852 218.55441315 108.3779364 218.54834045 107.21107483 218.54208374 C105.41531006 218.54996918 105.41531006 218.54996918 103.58326721 218.55801392 C100.30195704 218.56895669 97.02100982 218.56638825 93.73970509 218.55687666 C90.30012064 218.54927219 86.86056015 218.5563285 83.42097473 218.56103516 C77.6406775 218.56649337 71.86049523 218.55930252 66.08021545 218.54501343 C59.41143994 218.52871757 52.74294004 218.53395266 46.0741713 218.55049264 C40.33980661 218.56414265 34.60552453 218.56600914 28.87114882 218.55817664 C25.45035656 218.55351538 22.02969342 218.55283173 18.60890961 218.5627861 C14.78861016 218.57042379 10.96883533 218.55876136 7.14857483 218.54208374 C5.46190704 218.55119278 5.46190704 218.55119278 3.74116516 218.56048584 C-3.80302731 218.4996222 -9.30615418 217.46903359 -15.82896423 213.46640015 C-21.82440927 207.30441497 -23.200506 200.2360409 -23.21940613 191.89994812 C-23.22237725 191.16784109 -23.22534837 190.43573406 -23.22840953 189.68144196 C-23.23708361 187.22734418 -23.23860369 184.77329525 -23.24009705 182.31918335 C-23.24472619 180.55981848 -23.24975098 178.80045462 -23.25514221 177.04109192 C-23.26826027 172.25988561 -23.2747102 167.47869335 -23.27915287 162.69747186 C-23.28208499 159.70900487 -23.2861901 156.72054171 -23.29065704 153.73207664 C-23.30433138 144.37804759 -23.31399794 135.02402729 -23.31785893 125.66998893 C-23.32233749 114.87953712 -23.33987626 104.08921212 -23.36885953 93.29879886 C-23.39049443 84.95384567 -23.40056421 76.60892812 -23.40190005 68.26394719 C-23.40294693 63.28207377 -23.40882954 58.30031957 -23.42671967 53.31847572 C-23.44323125 48.62923912 -23.44534087 43.94021095 -23.43658066 39.25095558 C-23.43581189 37.53412822 -23.44013173 35.81728952 -23.45003891 34.10049057 C-23.54978319 15.73200204 -23.54978319 15.73200204 -18.32896423 7.34140015 C-13.01763306 2.17760595 -7.32767818 0.04590505 0 0 Z " fill="#4C3E79" transform="translate(1178.0789642333984,289.8460998535156)"/>
<path d="M0 0 C1.53719948 -0.0129007 1.53719948 -0.0129007 3.10545349 -0.02606201 C4.22400726 -0.03032196 5.34256104 -0.03458191 6.49501038 -0.03897095 C8.26874275 -0.05123718 8.26874275 -0.05123718 10.07830811 -0.06375122 C13.99331825 -0.08857552 17.90832081 -0.10526565 21.82337952 -0.11953735 C23.17293873 -0.1248993 24.52249787 -0.13027681 25.87205696 -0.13566971 C31.48502013 -0.15728212 37.0979805 -0.17601977 42.71097469 -0.1872921 C50.74845967 -0.2035421 58.78546218 -0.23676321 66.82276529 -0.29369295 C72.4789283 -0.33238941 78.1349622 -0.35192407 83.7912541 -0.35721266 C87.16797039 -0.36086511 90.54417114 -0.37287443 93.92074394 -0.4053154 C97.68676171 -0.43681422 101.45155258 -0.43702623 105.21766663 -0.42959595 C106.33419617 -0.44600128 107.45072571 -0.46240662 108.60108948 -0.47930908 C116.16943206 -0.41804407 116.16943206 -0.41804407 120.08999634 2.56536865 C123.47470962 7.35032128 123.56682058 11.38606865 122.92103577 17.15390015 C120.85659181 21.28278807 119.17350682 23.44542662 114.92103577 25.15390015 C112.78457642 25.40443993 112.78457642 25.40443993 110.44276428 25.40545654 C109.55114594 25.41083939 108.65952759 25.41622223 107.7408905 25.42176819 C106.7703775 25.4176442 105.7998645 25.4135202 104.79994202 25.40927124 C103.7719046 25.41289169 102.74386719 25.41651215 101.68467712 25.42024231 C99.4529967 25.42713477 97.22129943 25.42964203 94.98960876 25.42829514 C91.45955464 25.4273311 87.92980599 25.44025699 84.39979553 25.45727539 C74.36360528 25.50359155 64.32744638 25.5281658 54.29115295 25.53475952 C48.15265392 25.53976526 42.01447435 25.5639659 35.87608337 25.60008621 C33.53489599 25.60990438 31.19366477 25.61220524 28.85246277 25.60691452 C25.58200251 25.59986932 22.31249926 25.61707381 19.04212952 25.63973999 C18.07161652 25.63156754 17.10110352 25.62339508 16.10118103 25.61497498 C10.92831412 25.66425385 10.92831412 25.66425385 6.32258606 27.80194092 C4.52973461 30.81054755 4.40358578 32.80024866 4.37513733 36.29940796 C4.34555939 38.1608847 4.34555939 38.1608847 4.31538391 40.05996704 C4.31372089 41.40898596 4.31248995 42.75800546 4.31166077 44.10702515 C4.29667615 45.4913832 4.2799484 46.87572338 4.2615509 48.26004028 C4.21789558 51.89650298 4.19788273 55.53272454 4.18281555 59.16940308 C4.16323758 62.88313037 4.12126848 66.5965975 4.08119202 70.31015015 C4.0059099 77.59133017 3.9556068 84.87240094 3.92103577 92.15390015 C5.16274033 92.14279709 6.40444489 92.13169403 7.68377686 92.12025452 C19.38147374 92.01892838 31.07908168 91.94395845 42.77711773 91.89483929 C48.79134081 91.86873764 54.80520983 91.83332822 60.81922913 91.77670288 C66.62233781 91.72240487 72.42510578 91.69248389 78.22844887 91.67951393 C80.44328488 91.67027019 82.6581021 91.65221936 84.8727932 91.62524986 C87.97351354 91.58898995 91.07282332 91.58395366 94.17372131 91.58627319 C95.09081879 91.56829681 96.00791626 91.55032043 96.95280457 91.53179932 C101.4743888 91.56843578 103.31211884 91.67214067 106.96774292 94.56437683 C110.54867496 99.31169724 110.43417592 103.33525734 109.92103577 109.15390015 C108.28382056 113.08321665 106.79094598 114.55603454 102.92103577 116.15390015 C100.88272476 116.3999958 100.88272476 116.3999958 98.68159485 116.39440918 C97.84309494 116.39715851 97.00459503 116.39990784 96.14068604 116.40274048 C94.77367302 116.39195465 94.77367302 116.39195465 93.37904358 116.38095093 C92.41285599 116.38124298 91.4466684 116.38153503 90.45120239 116.38183594 C87.25876372 116.380443 84.06655865 116.36488332 80.87416077 116.34921265 C78.66027453 116.34548239 76.44638665 116.34263548 74.23249817 116.34063721 C68.40619853 116.33300174 62.57999864 116.31335391 56.7537384 116.29122925 C50.80821583 116.27076901 44.86267715 116.2616351 38.91712952 116.2515564 C27.25172111 116.23010801 15.58638674 116.19597303 3.92103577 116.15390015 C3.95907344 125.47270926 4.0184064 134.79106838 4.10493851 144.10955429 C4.14444966 148.43652617 4.17662011 152.76329343 4.19203186 157.09042358 C4.20717476 161.26631547 4.24157739 165.44164499 4.28934479 169.61728668 C4.30418318 171.21043256 4.31207819 172.80365872 4.31291962 174.39687347 C4.3152838 176.62866688 4.34231515 178.85889911 4.37513733 181.09042358 C4.38401978 182.3606134 4.39290222 183.63080322 4.40205383 184.93948364 C4.72357392 188.14194403 4.72357392 188.14194403 6.31309509 190.56422424 C10.43907633 193.07922507 14.45280972 192.69903928 19.19398499 192.65219116 C20.76048294 192.66046936 20.76048294 192.66046936 22.35862732 192.66891479 C24.62630711 192.67824112 26.89403928 192.67833479 29.16172409 192.67032051 C32.75128654 192.65771664 36.34007707 192.66895735 39.92961121 192.68635559 C46.25667337 192.71309549 52.58354723 192.7186499 58.91065979 192.71725464 C69.03117135 192.71502888 79.15144947 192.72912327 89.27186966 192.7728405 C92.80722023 192.78268526 96.34220512 192.77395704 99.87754822 192.7641449 C102.04813375 192.77028956 104.21871728 192.77720145 106.38929749 192.78500366 C107.37132141 192.77728439 108.35334534 192.76956512 109.36512756 192.76161194 C114.61641774 192.80055596 118.42492442 193.1201611 122.92103577 196.15390015 C125.55237134 200.10090351 125.98355307 203.4494731 125.92103577 208.15390015 C125.11905253 211.64252721 123.78629135 214.34698882 121.12867355 216.82540321 C118.46562019 218.42795697 116.88023465 218.53096428 113.78633118 218.53485107 C112.7490387 218.54331055 111.71174622 218.55177002 110.64302063 218.56048584 C109.51047852 218.55441315 108.3779364 218.54834045 107.21107483 218.54208374 C105.41531006 218.54996918 105.41531006 218.54996918 103.58326721 218.55801392 C100.30195704 218.56895669 97.02100982 218.56638825 93.73970509 218.55687666 C90.30012064 218.54927219 86.86056015 218.5563285 83.42097473 218.56103516 C77.6406775 218.56649337 71.86049523 218.55930252 66.08021545 218.54501343 C59.41143994 218.52871757 52.74294004 218.53395266 46.0741713 218.55049264 C40.33980661 218.56414265 34.60552453 218.56600914 28.87114882 218.55817664 C25.45035656 218.55351538 22.02969342 218.55283173 18.60890961 218.5627861 C14.78861016 218.57042379 10.96883533 218.55876136 7.14857483 218.54208374 C5.46190704 218.55119278 5.46190704 218.55119278 3.74116516 218.56048584 C-3.80302731 218.4996222 -9.30615418 217.46903359 -15.82896423 213.46640015 C-21.82440927 207.30441497 -23.200506 200.2360409 -23.21940613 191.89994812 C-23.22237725 191.16784109 -23.22534837 190.43573406 -23.22840953 189.68144196 C-23.23708361 187.22734418 -23.23860369 184.77329525 -23.24009705 182.31918335 C-23.24472619 180.55981848 -23.24975098 178.80045462 -23.25514221 177.04109192 C-23.26826027 172.25988561 -23.2747102 167.47869335 -23.27915287 162.69747186 C-23.28208499 159.70900487 -23.2861901 156.72054171 -23.29065704 153.73207664 C-23.30433138 144.37804759 -23.31399794 135.02402729 -23.31785893 125.66998893 C-23.32233749 114.87953712 -23.33987626 104.08921212 -23.36885953 93.29879886 C-23.39049443 84.95384567 -23.40056421 76.60892812 -23.40190005 68.26394719 C-23.40294693 63.28207377 -23.40882954 58.30031957 -23.42671967 53.31847572 C-23.44323125 48.62923912 -23.44534087 43.94021095 -23.43658066 39.25095558 C-23.43581189 37.53412822 -23.44013173 35.81728952 -23.45003891 34.10049057 C-23.54978319 15.73200204 -23.54978319 15.73200204 -18.32896423 7.34140015 C-13.01763306 2.17760595 -7.32767818 0.04590505 0 0 Z " fill="#4C3E79" transform="translate(584.0789642333984,289.8460998535156)"/>
<path d="M0 0 C6.8527108 4.16695389 8.37762631 10.17617136 10.84375 17.52734375 C11.28883929 18.80815264 11.73567289 20.08835651 12.18411255 21.36799622 C13.14212255 24.11297566 14.08827868 26.86164598 15.02520752 29.6138916 C16.51446884 33.9883186 18.0292092 38.35364412 19.54833984 42.71777344 C21.12530352 47.2520586 22.70035229 51.78696768 24.26620483 56.32510376 C28.93734077 69.8625364 33.71610592 83.36029147 38.5235939 96.84980297 C40.15149087 101.41781611 41.77467631 105.98747874 43.39453125 110.55834961 C43.61860531 111.19062249 43.84267937 111.82289537 44.07354355 112.47432804 C44.73916217 114.35266676 45.40473756 116.2310208 46.0703125 118.109375 C48.7389063 125.63844203 51.41370639 133.16514962 54.10804749 140.68504333 C60.05898889 157.30046617 65.81694992 173.8284839 70 191 C72.54487657 184.48944271 74.59205511 177.88906192 76.59765625 171.1953125 C80.826847 157.28141359 85.57596595 143.57833204 90.4375 129.875 C91.31853307 127.37986635 92.19918223 124.88460036 93.0793457 122.38916016 C94.86141725 117.33898631 96.64719165 112.29013974 98.43554688 107.2421875 C100.79180665 100.59087834 103.13919655 93.93647268 105.484375 87.28125 C108.58574223 78.48268658 111.70670363 69.69126384 114.83978271 60.90394592 C117.06914464 54.64287739 119.26946095 48.37220894 121.45549011 42.09588623 C122.98445023 37.71653112 124.52875621 33.34268355 126.07608032 28.9697876 C126.80944498 26.88646732 127.53629662 24.8008414 128.25619507 22.71282959 C129.25126354 19.82951063 130.26931095 16.95530202 131.29296875 14.08203125 C131.57982544 13.23233261 131.86668213 12.38263397 132.16223145 11.50718689 C134.13769313 6.06154254 136.153578 3.24123764 141 0 C146.77681518 -1.30941144 152.46365611 -0.77933089 157.625 2.1875 C160.66538873 4.45040886 162.37177326 6.14089286 163 10 C162.60790739 17.72405367 159.8450149 24.49496697 157.12890625 31.66796875 C156.61820722 33.03588914 156.10826325 34.40409161 155.59901428 35.77255249 C154.21895578 39.47423169 152.82806232 43.17175324 151.43506622 46.86857986 C149.96212314 50.78305339 148.4990764 54.70122412 147.03466797 58.61889648 C143.66940787 67.615357 140.28825603 76.60580347 136.90474701 85.59541321 C135.44970543 89.4625426 133.99662889 93.3304099 132.54345703 97.19824219 C128.16410533 108.85259618 123.78211417 120.50593674 119.38037109 132.15185547 C119.1148431 132.85439264 118.84931511 133.55692982 118.57574081 134.280756 C117.51576563 137.08510451 116.45577166 139.88944591 115.39558411 142.69371414 C111.84394792 152.0898537 108.31733012 161.49496235 104.81272125 170.90873909 C103.20675629 175.21948919 101.59477833 179.52799551 99.98382568 183.83688354 C99.13112252 186.12309076 98.28146637 188.41043717 97.43511963 190.69900513 C96.28099303 193.81925195 95.11628881 196.93535715 93.94921875 200.05078125 C93.62019058 200.94947937 93.29116241 201.84817749 92.9521637 202.77410889 C87.20135738 218.01525652 87.20135738 218.01525652 80.421875 221.375 C76.94566376 222.27208677 73.50770823 222.43194202 69.9375 222.5 C69.25260498 222.51869141 68.56770996 222.53738281 67.86206055 222.55664062 C62.76282653 222.49261547 59.89293442 221.22478539 56 218 C52.25832512 213.93275871 50.43781688 209.76250291 48.4921875 204.68359375 C48.15484589 203.82148788 47.81750427 202.95938202 47.46994019 202.07115173 C42.75893297 189.94179383 38.27682627 177.72321546 33.7701416 165.51681519 C30.91422718 157.78184469 28.04711196 150.05102197 25.1796875 142.3203125 C24.88494537 141.52550665 24.59020325 140.7307008 24.28652954 139.91180992 C18.2135364 123.5388865 12.07658195 107.19034868 5.91418457 90.85089111 C4.53458951 87.19292057 3.15669789 83.53431119 1.77928925 79.87551689 C-3.01455174 67.14357108 -7.82055292 54.41763323 -12.7421875 41.734375 C-13.73566847 39.16147492 -14.72850956 36.58832863 -15.72131348 34.01516724 C-16.58631312 31.7871476 -17.46572999 29.56525536 -18.34667969 27.34350586 C-22.8913626 15.70113669 -22.8913626 15.70113669 -22 9 C-20.25552041 5.44394545 -18.65776378 3.49332283 -15.5 1.125 C-10.40044793 -0.51414174 -5.27957522 -1.04491593 0 0 Z " fill="#4C3E79" transform="translate(956,288)"/>
<path d="M0 0 C6.8527108 4.16695389 8.37762631 10.17617136 10.84375 17.52734375 C11.28883929 18.80815264 11.73567289 20.08835651 12.18411255 21.36799622 C13.14212255 24.11297566 14.08827868 26.86164598 15.02520752 29.6138916 C16.51446884 33.9883186 18.0292092 38.35364412 19.54833984 42.71777344 C21.12530352 47.2520586 22.70035229 51.78696768 24.26620483 56.32510376 C28.93734077 69.8625364 33.71610592 83.36029147 38.5235939 96.84980297 C40.15149087 101.41781611 41.77467631 105.98747874 43.39453125 110.55834961 C43.61860531 111.19062249 43.84267937 111.82289537 44.07354355 112.47432804 C44.73916217 114.35266676 45.40473756 116.2310208 46.0703125 118.109375 C48.7389063 125.63844203 51.41370639 133.16514962 54.10804749 140.68504333 C60.05898889 157.30046617 65.81694992 173.8284839 70 191 C72.54487657 184.48944271 74.59205511 177.88906192 76.59765625 171.1953125 C80.826847 157.28141359 85.57596595 143.57833204 90.4375 129.875 C91.31853307 127.37986635 92.19918223 124.88460036 93.0793457 122.38916016 C94.86141725 117.33898631 96.64719165 112.29013974 98.43554688 107.2421875 C100.79180665 100.59087834 103.13919655 93.93647268 105.484375 87.28125 C108.58574223 78.48268658 111.70670363 69.69126384 114.83978271 60.90394592 C117.06914464 54.64287739 119.26946095 48.37220894 121.45549011 42.09588623 C122.98445023 37.71653112 124.52875621 33.34268355 126.07608032 28.9697876 C126.80944498 26.88646732 127.53629662 24.8008414 128.25619507 22.71282959 C129.25126354 19.82951063 130.26931095 16.95530202 131.29296875 14.08203125 C131.57982544 13.23233261 131.86668213 12.38263397 132.16223145 11.50718689 C134.13769313 6.06154254 136.153578 3.24123764 141 0 C146.77681518 -1.30941144 152.46365611 -0.77933089 157.625 2.1875 C160.66538873 4.45040886 162.37177326 6.14089286 163 10 C162.60790739 17.72405367 159.8450149 24.49496697 157.12890625 31.66796875 C156.61820722 33.03588914 156.10826325 34.40409161 155.59901428 35.77255249 C154.21895578 39.47423169 152.82806232 43.17175324 151.43506622 46.86857986 C149.96212314 50.78305339 148.4990764 54.70122412 147.03466797 58.61889648 C143.66940787 67.615357 140.28825603 76.60580347 136.90474701 85.59541321 C135.44970543 89.4625426 133.99662889 93.3304099 132.54345703 97.19824219 C128.16410533 108.85259618 123.78211417 120.50593674 119.38037109 132.15185547 C119.1148431 132.85439264 118.84931511 133.55692982 118.57574081 134.280756 C117.51576563 137.08510451 116.45577166 139.88944591 115.39558411 142.69371414 C111.84394792 152.0898537 108.31733012 161.49496235 104.81272125 170.90873909 C103.20675629 175.21948919 101.59477833 179.52799551 99.98382568 183.83688354 C99.13112252 186.12309076 98.28146637 188.41043717 97.43511963 190.69900513 C96.28099303 193.81925195 95.11628881 196.93535715 93.94921875 200.05078125 C93.62019058 200.94947937 93.29116241 201.84817749 92.9521637 202.77410889 C87.20135738 218.01525652 87.20135738 218.01525652 80.421875 221.375 C76.94566376 222.27208677 73.50770823 222.43194202 69.9375 222.5 C69.25260498 222.51869141 68.56770996 222.53738281 67.86206055 222.55664062 C62.76282653 222.49261547 59.89293442 221.22478539 56 218 C52.25832512 213.93275871 50.43781688 209.76250291 48.4921875 204.68359375 C48.15484589 203.82148788 47.81750427 202.95938202 47.46994019 202.07115173 C42.75893297 189.94179383 38.27682627 177.72321546 33.7701416 165.51681519 C30.91422718 157.78184469 28.04711196 150.05102197 25.1796875 142.3203125 C24.88494537 141.52550665 24.59020325 140.7307008 24.28652954 139.91180992 C18.2135364 123.5388865 12.07658195 107.19034868 5.91418457 90.85089111 C4.53458951 87.19292057 3.15669789 83.53431119 1.77928925 79.87551689 C-3.01455174 67.14357108 -7.82055292 54.41763323 -12.7421875 41.734375 C-13.73566847 39.16147492 -14.72850956 36.58832863 -15.72131348 34.01516724 C-16.58631312 31.7871476 -17.46572999 29.56525536 -18.34667969 27.34350586 C-22.8913626 15.70113669 -22.8913626 15.70113669 -22 9 C-20.25552041 5.44394545 -18.65776378 3.49332283 -15.5 1.125 C-10.40044793 -0.51414174 -5.27957522 -1.04491593 0 0 Z " fill="#4C3E79" transform="translate(362,288)"/>
<path d="M0 0 C1.67542976 0.28604898 3.34385343 0.61781233 5 1 C5.10152851 8.58044988 5.17151993 16.160724 5.21972656 23.74169922 C5.23982563 26.31989088 5.26710941 28.89803704 5.30175781 31.47607422 C5.35034847 35.18468461 5.37298658 38.89269156 5.390625 42.6015625 C5.41127014 43.75177887 5.43191528 44.90199524 5.45318604 46.08706665 C5.45488954 52.1803398 5.40506242 56.35522547 1 61 C-2.86131675 64.06655401 -5.8609357 64.38436143 -10.7265625 64.3984375 C-12.0053125 64.40230469 -13.2840625 64.40617188 -14.6015625 64.41015625 C-15.26188477 64.40387207 -15.92220703 64.39758789 -16.60253906 64.39111328 C-18.62633114 64.37498939 -20.64814295 64.39101814 -22.671875 64.41015625 C-23.94804687 64.40628906 -25.22421875 64.40242187 -26.5390625 64.3984375 C-27.70646973 64.39505371 -28.87387695 64.39166992 -30.07666016 64.38818359 C-33 64 -33 64 -34.87695312 62.67919922 C-36.82113991 59.77221733 -36.39034465 57.39244987 -36 54 C-34.81051646 51.52539605 -33.65017883 49.49626575 -32.125 47.25 C-31.69662842 46.59241699 -31.26825684 45.93483398 -30.8269043 45.25732422 C-29.23492564 42.82661946 -27.61690618 40.41419461 -26 38 C-24.91246726 36.35609579 -23.82499168 34.7121533 -22.73876953 33.06738281 C-2.62959184 2.62959184 -2.62959184 2.62959184 0 0 Z " fill="#FDB916" transform="translate(302,448)"/>
<path d="M0 0 C2.05078125 0.03255208 4.1015625 0.06510417 6.15234375 0.09765625 C12.47726175 14.27591947 18.44617743 28.58587937 24.27734375 42.97265625 C24.78891525 44.23255875 24.78891525 44.23255875 25.31082153 45.51791382 C26.28373387 47.91596772 27.25383115 50.31513606 28.22265625 52.71484375 C28.51906509 53.44611984 28.81547394 54.17739594 29.12086487 54.93083191 C31.15234375 59.98145548 31.15234375 59.98145548 31.15234375 61.09765625 C27.85234375 61.09765625 24.55234375 61.09765625 21.15234375 61.09765625 C18.18234375 54.16765625 18.18234375 54.16765625 15.15234375 47.09765625 C6.24234375 46.76765625 -2.66765625 46.43765625 -11.84765625 46.09765625 C-12.83765625 49.39765625 -13.82765625 52.69765625 -14.84765625 56.09765625 C-15.48529164 57.77564413 -16.13392906 59.4505935 -16.84765625 61.09765625 C-20.14765625 61.09765625 -23.44765625 61.09765625 -26.84765625 61.09765625 C-24.87127589 54.98784568 -22.68914133 49.03975664 -20.23046875 43.109375 C-19.89143524 42.28492386 -19.55240173 41.46047272 -19.20309448 40.61103821 C-18.12908159 38.00124704 -17.05092498 35.3931915 -15.97265625 32.78515625 C-15.257543 31.0489391 -14.54269722 29.31261177 -13.828125 27.57617188 C-12.14014083 23.47645437 -10.4465314 19.37909347 -8.75061035 15.28265381 C-7.91728069 13.26613573 -7.08819705 11.2479381 -6.26074219 9.22900391 C-5.8124707 8.14022949 -5.36419922 7.05145508 -4.90234375 5.9296875 C-4.52319824 5.00518799 -4.14405273 4.08068848 -3.75341797 3.12817383 C-2.41495712 0.12764044 -2.41495712 0.12764044 0 0 Z M1.15234375 13.09765625 C-0.35313994 16.88716869 -1.85110939 20.67960656 -3.34765625 24.47265625 C-3.99154297 26.09300781 -3.99154297 26.09300781 -4.6484375 27.74609375 C-5.05449219 28.77734375 -5.46054687 29.80859375 -5.87890625 30.87109375 C-6.25595703 31.82419434 -6.63300781 32.77729492 -7.02148438 33.75927734 C-7.95869927 35.99861075 -7.95869927 35.99861075 -7.84765625 38.09765625 C-1.24765625 38.09765625 5.35234375 38.09765625 12.15234375 38.09765625 C10.23960267 32.35943301 8.31539132 26.70990664 6.08984375 21.09765625 C5.83396484 20.43121094 5.57808594 19.76476562 5.31445312 19.078125 C4.05705101 15.40327339 4.05705101 15.40327339 1.15234375 13.09765625 Z " fill="#4C3E79" transform="translate(633.84765625,540.90234375)"/>
<path d="M0 0 C4.44378651 2.52774091 7.78385688 6.33906242 9.22949219 11.29589844 C10.00192983 14.90774439 9.95488032 18.50573387 10 22.1875 C10.02900391 22.9609375 10.05800781 23.734375 10.08789062 24.53125 C10.1573622 30.901259 8.67525899 36.28501104 4.20410156 41.00268555 C-0.14580265 44.78295944 -3.49549842 45.60252639 -9.125 45.6875 C-10.65060547 45.72617187 -10.65060547 45.72617187 -12.20703125 45.765625 C-15.3125 45.4375 -15.3125 45.4375 -21.3125 42.4375 C-21.6425 49.0375 -21.9725 55.6375 -22.3125 62.4375 C-25.2825 62.4375 -28.2525 62.4375 -31.3125 62.4375 C-31.3125 41.6475 -31.3125 20.8575 -31.3125 -0.5625 C-28.6725 -0.5625 -26.0325 -0.5625 -23.3125 -0.5625 C-22.9825 0.4275 -22.6525 1.4175 -22.3125 2.4375 C-21.19875 1.7775 -20.085 1.1175 -18.9375 0.4375 C-12.68744959 -2.65439773 -6.41385478 -2.79020801 0 0 Z M-20.3125 8.4375 C-23.28533733 12.896756 -22.68077788 17.12838435 -22.6875 22.375 C-22.71199219 23.37724609 -22.73648438 24.37949219 -22.76171875 25.41210938 C-22.87758444 31.09444755 -22.87758444 31.09444755 -20.4765625 36.06640625 C-16.36684573 38.67021597 -12.07071187 39.24702565 -7.3125 38.4375 C-3.51491857 36.36004845 -0.84643603 33.48597043 0.6875 29.4375 C1.04246078 26.13511149 1.04246078 26.13511149 1 22.5625 C1.01675781 21.36882813 1.03351562 20.17515625 1.05078125 18.9453125 C0.57660076 14.36666651 -0.85589423 11.0020025 -4 7.625 C-9.95548771 4.56677658 -14.80271106 4.76430737 -20.3125 8.4375 Z " fill="#4C3E79" transform="translate(791.3125,557.5625)"/>
<path d="M0 0 C4.44378651 2.52774091 7.78385688 6.33906242 9.22949219 11.29589844 C10.00192983 14.90774439 9.95488032 18.50573387 10 22.1875 C10.02900391 22.9609375 10.05800781 23.734375 10.08789062 24.53125 C10.1573622 30.901259 8.67525899 36.28501104 4.20410156 41.00268555 C-0.14580265 44.78295944 -3.49549842 45.60252639 -9.125 45.6875 C-10.65060547 45.72617187 -10.65060547 45.72617187 -12.20703125 45.765625 C-15.3125 45.4375 -15.3125 45.4375 -21.3125 42.4375 C-21.6425 49.0375 -21.9725 55.6375 -22.3125 62.4375 C-25.2825 62.4375 -28.2525 62.4375 -31.3125 62.4375 C-31.3125 41.6475 -31.3125 20.8575 -31.3125 -0.5625 C-28.6725 -0.5625 -26.0325 -0.5625 -23.3125 -0.5625 C-22.9825 0.4275 -22.6525 1.4175 -22.3125 2.4375 C-21.19875 1.7775 -20.085 1.1175 -18.9375 0.4375 C-12.68744959 -2.65439773 -6.41385478 -2.79020801 0 0 Z M-20.3125 8.4375 C-23.28533733 12.896756 -22.68077788 17.12838435 -22.6875 22.375 C-22.71199219 23.37724609 -22.73648438 24.37949219 -22.76171875 25.41210938 C-22.87758444 31.09444755 -22.87758444 31.09444755 -20.4765625 36.06640625 C-16.36684573 38.67021597 -12.07071187 39.24702565 -7.3125 38.4375 C-3.51491857 36.36004845 -0.84643603 33.48597043 0.6875 29.4375 C1.04246078 26.13511149 1.04246078 26.13511149 1 22.5625 C1.01675781 21.36882813 1.03351562 20.17515625 1.05078125 18.9453125 C0.57660076 14.36666651 -0.85589423 11.0020025 -4 7.625 C-9.95548771 4.56677658 -14.80271106 4.76430737 -20.3125 8.4375 Z " fill="#4C3E79" transform="translate(721.3125,557.5625)"/>
<path d="M0 0 C4.44378651 2.52774091 7.78385688 6.33906242 9.22949219 11.29589844 C10.00192983 14.90774439 9.95488032 18.50573387 10 22.1875 C10.02900391 22.9609375 10.05800781 23.734375 10.08789062 24.53125 C10.1573622 30.901259 8.67525899 36.28501104 4.20410156 41.00268555 C-0.14580265 44.78295944 -3.49549842 45.60252639 -9.125 45.6875 C-10.65060547 45.72617187 -10.65060547 45.72617187 -12.20703125 45.765625 C-15.3125 45.4375 -15.3125 45.4375 -21.3125 42.4375 C-21.6425 49.0375 -21.9725 55.6375 -22.3125 62.4375 C-25.2825 62.4375 -28.2525 62.4375 -31.3125 62.4375 C-31.3125 41.6475 -31.3125 20.8575 -31.3125 -0.5625 C-28.6725 -0.5625 -26.0325 -0.5625 -23.3125 -0.5625 C-22.9825 0.4275 -22.6525 1.4175 -22.3125 2.4375 C-21.19875 1.7775 -20.085 1.1175 -18.9375 0.4375 C-12.68744959 -2.65439773 -6.41385478 -2.79020801 0 0 Z M-20.3125 8.4375 C-23.28533733 12.896756 -22.68077788 17.12838435 -22.6875 22.375 C-22.71199219 23.37724609 -22.73648437 24.37949219 -22.76171875 25.41210938 C-22.87758444 31.09444755 -22.87758444 31.09444755 -20.4765625 36.06640625 C-16.36684573 38.67021597 -12.07071187 39.24702565 -7.3125 38.4375 C-3.51491857 36.36004845 -0.84643603 33.48597043 0.6875 29.4375 C1.04246078 26.13511149 1.04246078 26.13511149 1 22.5625 C1.01675781 21.36882813 1.03351563 20.17515625 1.05078125 18.9453125 C0.57660076 14.36666651 -0.85589423 11.0020025 -4 7.625 C-9.95548771 4.56677658 -14.80271106 4.76430737 -20.3125 8.4375 Z " fill="#4C3E79" transform="translate(304.3125,557.5625)"/>
<path d="M0 0 C2.97 0 5.94 0 9 0 C9 21.12 9 42.24 9 64 C6.36 64 3.72 64 1 64 C1 63.01 1 62.02 1 61 C-0.093125 61.66 -1.18625 62.32 -2.3125 63 C-8.48020231 66.07837362 -14.81475085 66.02168369 -21.3125 63.9375 C-26.87907506 59.92438775 -30.2346623 55.68884835 -32 49 C-32.79631776 40.5831065 -33.09544465 32.11579588 -28 25 C-23.95871804 20.58365707 -20.64169118 18.31248835 -14.6328125 17.796875 C-13.80523438 17.78140625 -12.97765625 17.7659375 -12.125 17.75 C-11.30257812 17.72421875 -10.48015625 17.6984375 -9.6328125 17.671875 C-7 18 -7 18 -1 21 C-0.67 14.07 -0.34 7.14 0 0 Z M-19 28 C-23.17652367 33.18822816 -23.56931952 38.74871932 -23.31640625 45.2265625 C-22.72341752 50.42436496 -21.16821487 52.99108716 -17.25 56.375 C-13.38918695 58.30540652 -11.26568014 58.60938288 -7 58 C-4.39152371 56.50254139 -2.12971098 55.12971098 0 53 C0.33568667 49.23818467 0.32500177 45.46236606 0.375 41.6875 C0.41238281 40.62853516 0.44976563 39.56957031 0.48828125 38.47851562 C0.70099068 32.38383011 0.70099068 32.38383011 -2.27734375 27.328125 C-8.22317667 24.4277187 -13.45569573 23.8417718 -19 28 Z " fill="#4C3E79" transform="translate(531,538)"/>
<path d="M0 0 C3.60421553 2.20666257 6.20784937 4.06263873 8.0625 7.875 C8.80640802 12.66198543 8.80769145 17.41259748 8.8125 22.25 C8.8459146 24.82035387 8.88229184 27.39067122 8.921875 29.9609375 C8.93669922 31.15944336 8.95152344 32.35794922 8.96679688 33.59277344 C9.07847031 37.4227164 9.46886494 41.0929702 10.0625 44.875 C6.7625 44.875 3.4625 44.875 0.0625 44.875 C-0.2675 43.885 -0.5975 42.895 -0.9375 41.875 C-1.535625 42.349375 -2.13375 42.82375 -2.75 43.3125 C-7.83382654 46.94380467 -13.94613884 46.44080772 -19.9375 45.875 C-24.24398051 44.42447515 -27.78584191 41.93924306 -29.9375 37.875 C-31.34479664 33.00358855 -30.88870073 29.54091478 -28.9375 24.875 C-21.91320749 17.85070749 -14.48154731 16.82750636 -4.9375 16.8125 C-3.60409713 16.82826659 -2.27070679 16.84722486 -0.9375 16.875 C-1.22397607 12.04840781 -1.22397607 12.04840781 -3.5 7.9375 C-6.98550036 6.41817933 -10.23325055 6.3237724 -13.9375 6.875 C-16.86548943 8.02912336 -16.86548943 8.02912336 -18.9375 9.875 C-19.2675 10.865 -19.5975 11.855 -19.9375 12.875 C-23.2375 12.875 -26.5375 12.875 -29.9375 12.875 C-29.1229296 9.02430358 -28.52827701 6.48265636 -25.75 3.625 C-17.80213587 -1.32033768 -9.16763117 -3.37015763 0 0 Z M-18.8125 25.4375 C-21.24845085 27.79573679 -21.24845085 27.79573679 -21.5 31.4375 C-21.15349976 34.71228004 -21.15349976 34.71228004 -19.9375 36.75 C-16.71033825 38.56527848 -13.58063435 39.11399995 -9.9375 38.875 C-6.72179758 37.73841552 -3.38122172 36.31872172 -0.9375 33.875 C-0.86544489 32.18891034 -0.85363932 30.49999341 -0.875 28.8125 C-0.88402344 27.89339844 -0.89304687 26.97429688 -0.90234375 26.02734375 C-0.91394531 25.31707031 -0.92554688 24.60679687 -0.9375 23.875 C-10.15418546 23.02255438 -10.15418546 23.02255438 -18.8125 25.4375 Z " fill="#4C3E79" transform="translate(1005.9375,557.125)"/>
<path d="M0 0 C5.28325152 3.06839148 7.3039793 6.66619825 9.5625 12.3125 C10.0575 18.2525 10.0575 18.2525 10.5625 24.3125 C-0.3275 24.3125 -11.2175 24.3125 -22.4375 24.3125 C-19.68960031 32.52417244 -19.68960031 32.52417244 -13.4375 37.3125 C-6.74284723 38.18355148 -2.33874612 37.32129171 3.1640625 33.40625 C3.62554687 33.0453125 4.08703125 32.684375 4.5625 32.3125 C6.2125 33.9625 7.8625 35.6125 9.5625 37.3125 C8.50762267 38.27921756 7.44316719 39.23548745 6.375 40.1875 C5.78332031 40.72117187 5.19164062 41.25484375 4.58203125 41.8046875 C-1.46868987 46.32224718 -8.19546101 45.9825819 -15.4375 45.3125 C-21.96305786 43.78503609 -25.58058873 40.66097436 -29.34375 35.21484375 C-32.86930516 29.08289603 -32.34587051 19.83895644 -30.9765625 13.015625 C-28.71914082 7.22600234 -24.48316384 2.55594272 -19.25 -0.625 C-12.70362361 -2.44939998 -6.29654815 -2.88983366 0 0 Z M-19.4375 9.3125 C-21.76280944 13.06819282 -21.76280944 13.06819282 -22.4375 17.3125 C-14.8475 17.3125 -7.2575 17.3125 0.5625 17.3125 C0.25492408 10.5412825 0.25492408 10.5412825 -3.0625 7.375 C-9.3656687 3.52306357 -13.96730088 4.58823712 -19.4375 9.3125 Z " fill="#4C3E79" transform="translate(463.4375,557.6875)"/>
<path d="M0 0 C4.69747096 3.51539402 8.03811439 7.71363916 9.78515625 13.3359375 C10.4529711 20.70519677 11.22313133 29.21173765 7.1953125 35.72265625 C3.09533365 40.41321377 -1.69704016 43.99057109 -8 44.609375 C-15.77523489 44.85032388 -21.93285324 44.22582955 -28.21484375 39.3359375 C-34.78064798 31.54188814 -34.9295147 23.11671989 -34.21484375 13.3359375 C-32.62021321 7.05347741 -28.50710835 2.87965653 -23.21484375 -0.6640625 C-16.07249774 -4.23523551 -6.90150863 -3.99635612 0 0 Z M-22.46484375 9.8359375 C-26.18338537 15.14813982 -25.79737675 21.08179851 -25.21484375 27.3359375 C-23.99105679 31.14696971 -22.01241004 33.6491443 -18.96484375 36.2734375 C-15.30825793 37.6862093 -12.04567951 38.0044559 -8.21484375 37.3359375 C-4.69205886 35.60777888 -2.72303775 33.99658971 -0.33984375 30.8984375 C1.71351358 24.3961393 2.34541201 16.46150216 -0.83984375 10.2109375 C-4.20974977 6.13157758 -7.04109934 4.60211028 -12.27734375 3.9609375 C-16.95611711 4.55822772 -19.3448134 6.36923712 -22.46484375 9.8359375 Z " fill="#4C3E79" transform="translate(1166.21484375,558.6640625)"/>
<path d="M0 0 C3.17581032 2.68478728 4.82629565 5.27845886 5.8125 9.375 C5.874375 10.24125 5.93625 11.1075 6 12 C2.9502205 12.28771505 0.03825419 12.45031267 -3 12 C-4.8125 9.625 -4.8125 9.625 -6 7 C-9.41928194 4.43553855 -12.8501922 4.70358516 -17 5 C-19.35369807 5.88064927 -19.35369807 5.88064927 -21 7 C-21 8.98 -21 10.96 -21 13 C-16.14781625 14.90281716 -11.334179 16.47121246 -6.3125 17.875 C-1.16521739 19.42574563 1.80942701 20.66993666 5 25 C6.61931552 28.23863103 6.56716392 31.49922957 6 35 C3.51077231 38.99785053 0.78714446 41.87715872 -3.71875 43.52734375 C-11.35477685 45.10946575 -19.65740518 45.30289018 -26.44921875 41.12890625 C-30.32205291 38.30963906 -31.77844545 37.10777275 -32.75 32.25 C-32.8325 31.1775 -32.915 30.105 -33 29 C-29.94998682 28.71226291 -27.0385411 28.55044757 -24 29 C-22.125 31.375 -22.125 31.375 -21 34 C-17.79375113 36.13749925 -16.77541897 36.29574999 -13.0625 36.3125 C-12.20785156 36.32925781 -11.35320312 36.34601562 -10.47265625 36.36328125 C-7.5578644 35.93504169 -6.18673321 34.92290461 -4 33 C-4.03093173 30.58414426 -4.03093173 30.58414426 -5 28 C-10.08641096 24.96531616 -15.57214033 23.55069922 -21.25390625 22.0703125 C-25.98932995 20.70966146 -28.47949205 19.26891094 -31 15 C-31.78215426 11.89835381 -31.62905208 9.1287064 -31 6 C-28.4633225 1.84907319 -25.71842246 -0.83427021 -21.08203125 -2.53125 C-14.03409071 -4.11802836 -6.27856005 -3.80130507 0 0 Z " fill="#4C3E79" transform="translate(1304,559)"/>
<path d="M0 0 C3.17581032 2.68478728 4.82629565 5.27845886 5.8125 9.375 C5.874375 10.24125 5.93625 11.1075 6 12 C2.9502205 12.28771505 0.03825419 12.45031267 -3 12 C-4.8125 9.625 -4.8125 9.625 -6 7 C-9.41928194 4.43553855 -12.8501922 4.70358516 -17 5 C-19.35369807 5.88064927 -19.35369807 5.88064927 -21 7 C-21 8.98 -21 10.96 -21 13 C-16.14781625 14.90281716 -11.334179 16.47121246 -6.3125 17.875 C-1.16521739 19.42574563 1.80942701 20.66993666 5 25 C6.61931552 28.23863103 6.56716392 31.49922957 6 35 C3.51077231 38.99785053 0.78714446 41.87715872 -3.71875 43.52734375 C-11.35477685 45.10946575 -19.65740518 45.30289018 -26.44921875 41.12890625 C-30.32205291 38.30963906 -31.77844545 37.10777275 -32.75 32.25 C-32.8325 31.1775 -32.915 30.105 -33 29 C-29.94998682 28.71226291 -27.0385411 28.55044757 -24 29 C-22.125 31.375 -22.125 31.375 -21 34 C-17.79375113 36.13749925 -16.77541897 36.29574999 -13.0625 36.3125 C-12.20785156 36.32925781 -11.35320312 36.34601562 -10.47265625 36.36328125 C-7.5578644 35.93504169 -6.18673321 34.92290461 -4 33 C-4.03093173 30.58414426 -4.03093173 30.58414426 -5 28 C-10.08641096 24.96531616 -15.57214033 23.55069922 -21.25390625 22.0703125 C-25.98932995 20.70966146 -28.47949205 19.26891094 -31 15 C-31.78215426 11.89835381 -31.62905208 9.1287064 -31 6 C-28.4633225 1.84907319 -25.71842246 -0.83427021 -21.08203125 -2.53125 C-14.03409071 -4.11802836 -6.27856005 -3.80130507 0 0 Z " fill="#4C3E79" transform="translate(238,559)"/>
<path d="M0 0 C5.10608868 3.36254621 6.10499078 5.62622732 7.5625 11.6875 C7.72128851 14.36180583 7.79797409 16.92199758 7.7578125 19.58984375 C7.7549826 20.3124086 7.75215271 21.03497345 7.74923706 21.7794342 C7.73814386 24.06146616 7.71306088 26.34308897 7.6875 28.625 C7.67745611 30.18293699 7.66833274 31.74088021 7.66015625 33.29882812 C7.63824033 37.09520699 7.60378738 40.8912844 7.5625 44.6875 C4.5925 44.6875 1.6225 44.6875 -1.4375 44.6875 C-1.45731934 43.77460205 -1.47713867 42.8617041 -1.49755859 41.92114258 C-1.57586264 38.51967528 -1.66256225 35.11863396 -1.75488281 31.7175293 C-1.79305952 30.24821138 -1.82793182 28.77880361 -1.859375 27.30932617 C-1.90527289 25.19156886 -1.96322372 23.0744241 -2.0234375 20.95703125 C-2.07056885 19.04821167 -2.07056885 19.04821167 -2.11865234 17.10083008 C-2.48391086 13.19066216 -2.97402261 9.92582703 -6.0625 7.3125 C-9.60492235 6.38028359 -12.98269832 6.56806705 -16.4375 7.6875 C-19.15796553 9.19238158 -19.15796553 9.19238158 -21.4375 11.6875 C-21.95531834 14.42286915 -22.15987199 16.56162713 -22.14453125 19.296875 C-22.15965256 20.02368469 -22.17477386 20.75049438 -22.19035339 21.49932861 C-22.23321568 23.81236833 -22.24206588 26.12410281 -22.25 28.4375 C-22.27314581 30.00914925 -22.29851135 31.58076748 -22.32617188 33.15234375 C-22.38900834 36.9975111 -22.42135517 40.84186458 -22.4375 44.6875 C-25.4075 44.6875 -28.3775 44.6875 -31.4375 44.6875 C-31.4375 29.8375 -31.4375 14.9875 -31.4375 -0.3125 C-28.7975 -0.3125 -26.1575 -0.3125 -23.4375 -0.3125 C-22.7775 0.6775 -22.1175 1.6675 -21.4375 2.6875 C-20.32375 2.0275 -19.21 1.3675 -18.0625 0.6875 C-12.02757898 -2.3192603 -6.26480172 -2.3920152 0 0 Z " fill="#4C3E79" transform="translate(1235.4375,557.3125)"/>
<path d="M0 0 C5.10608868 3.36254621 6.10499078 5.62622732 7.5625 11.6875 C7.72128851 14.36180583 7.79797409 16.92199758 7.7578125 19.58984375 C7.7549826 20.3124086 7.75215271 21.03497345 7.74923706 21.7794342 C7.73814386 24.06146616 7.71306088 26.34308897 7.6875 28.625 C7.67745611 30.18293699 7.66833274 31.74088021 7.66015625 33.29882812 C7.63824033 37.09520699 7.60378738 40.8912844 7.5625 44.6875 C4.5925 44.6875 1.6225 44.6875 -1.4375 44.6875 C-1.45731934 43.77460205 -1.47713867 42.8617041 -1.49755859 41.92114258 C-1.57586264 38.51967528 -1.66256225 35.11863396 -1.75488281 31.7175293 C-1.79305952 30.24821138 -1.82793182 28.77880361 -1.859375 27.30932617 C-1.90527289 25.19156886 -1.96322372 23.0744241 -2.0234375 20.95703125 C-2.07056885 19.04821167 -2.07056885 19.04821167 -2.11865234 17.10083008 C-2.48391086 13.19066216 -2.97402261 9.92582703 -6.0625 7.3125 C-9.60492235 6.38028359 -12.98269832 6.56806705 -16.4375 7.6875 C-19.15796553 9.19238158 -19.15796553 9.19238158 -21.4375 11.6875 C-21.95531834 14.42286915 -22.15987199 16.56162713 -22.14453125 19.296875 C-22.15965256 20.02368469 -22.17477386 20.75049438 -22.19035339 21.49932861 C-22.23321568 23.81236833 -22.24206588 26.12410281 -22.25 28.4375 C-22.27314581 30.00914925 -22.29851135 31.58076748 -22.32617188 33.15234375 C-22.38900834 36.9975111 -22.42135517 40.84186458 -22.4375 44.6875 C-25.4075 44.6875 -28.3775 44.6875 -31.4375 44.6875 C-31.4375 29.8375 -31.4375 14.9875 -31.4375 -0.3125 C-28.7975 -0.3125 -26.1575 -0.3125 -23.4375 -0.3125 C-22.7775 0.6775 -22.1175 1.6675 -21.4375 2.6875 C-20.32375 2.0275 -19.21 1.3675 -18.0625 0.6875 C-12.02757898 -2.3192603 -6.26480172 -2.3920152 0 0 Z " fill="#4C3E79" transform="translate(170.4375,557.3125)"/>
<path d="M0 0 C3.36847567 2.49354692 4.57109618 4.65291811 6.10546875 8.55859375 C6.35546875 11.49609375 6.35546875 11.49609375 6.10546875 13.55859375 C3.46546875 13.55859375 0.82546875 13.55859375 -1.89453125 13.55859375 C-2.47203125 12.44484375 -3.04953125 11.33109375 -3.64453125 10.18359375 C-4.89342463 8.02957903 -5.74425937 6.6777749 -7.70703125 5.12109375 C-12.47193011 3.89583404 -15.79739718 3.9996764 -20.20703125 6.24609375 C-23.85434289 9.38447819 -24.73655382 11.9193215 -25.1953125 16.6796875 C-25.22061109 23.83918961 -25.12101516 28.8357277 -20.26953125 34.43359375 C-16.52770488 36.20603782 -12.95204661 36.22518556 -8.89453125 35.55859375 C-5.55852758 33.5002085 -4.06831365 31.81926735 -1.89453125 28.55859375 C0.05078125 28.265625 0.05078125 28.265625 2.23046875 28.37109375 C3.50921875 28.43296875 4.78796875 28.49484375 6.10546875 28.55859375 C5.65011437 33.45365331 4.64540276 36.10942728 1.10546875 39.55859375 C-5.21733925 44.3396333 -12.23331378 44.49709289 -19.89453125 43.55859375 C-25.84967621 41.85985048 -29.46021911 38.60905278 -32.89453125 33.55859375 C-36.13343071 25.56398628 -36.5248142 15.50398274 -33.26953125 7.43359375 C-30.61902663 2.47789674 -27.27594472 -0.27839037 -22.20703125 -2.75390625 C-14.06103331 -4.44458507 -7.34813288 -4.12383292 0 0 Z " fill="#4C3E79" transform="translate(943.89453125,559.44140625)"/>
<path d="M0 0 C2.97 0 5.94 0 9 0 C9 3.63 9 7.26 9 11 C11.97 11 14.94 11 18 11 C18 13.31 18 15.62 18 18 C15.03 18 12.06 18 9 18 C9.1179762 22.25435079 9.2422037 26.50845821 9.37231445 30.76245117 C9.4157163 32.2106424 9.45738744 33.65888654 9.49731445 35.10717773 C9.55489062 37.18489559 9.61862028 39.26234573 9.68359375 41.33984375 C9.72025146 42.59144287 9.75690918 43.84304199 9.79467773 45.13256836 C9.67803906 47.89630504 9.67803906 47.89630504 11 49 C13.33297433 49.04092937 15.66705225 49.04241723 18 49 C18 51.64 18 54.28 18 57 C7.10055447 57.62580548 7.10055447 57.62580548 2.8125 55.1875 C-0.41394082 51.2935197 -0.13389882 47.51343207 -0.09765625 42.70703125 C-0.0962413 42.00100266 -0.09482635 41.29497406 -0.09336853 40.56755066 C-0.08777764 38.31582374 -0.07522688 36.06419679 -0.0625 33.8125 C-0.05748382 32.28450665 -0.05292112 30.75651173 -0.04882812 29.22851562 C-0.0378112 25.48563865 -0.02055287 21.74283627 0 18 C-2.97 18 -5.94 18 -9 18 C-9 15.69 -9 13.38 -9 11 C-6.03 11 -3.06 11 0 11 C0 7.37 0 3.74 0 0 Z " fill="#4C3E79" transform="translate(1048,546)"/>
<path d="M0 0 C2.97 0 5.94 0 9 0 C9 21.12 9 42.24 9 64 C6.03 64 3.06 64 0 64 C0 42.88 0 21.76 0 0 Z " fill="#4C3E79" transform="translate(831,538)"/>
<path d="M0 0 C2.97 0 5.94 0 9 0 C9 20.13 9 40.26 9 61 C6.03 61 3.06 61 0 61 C0 40.87 0 20.74 0 0 Z " fill="#4C3E79" transform="translate(345,541)"/>
<path d="M0 0 C2.97 0 5.94 0 9 0 C9 20.13 9 40.26 9 61 C6.03 61 3.06 61 0 61 C0 40.87 0 20.74 0 0 Z " fill="#4C3E79" transform="translate(97,541)"/>
<path d="M0 0 C0 2.64 0 5.28 0 8 C-0.67546875 8.10957031 -1.3509375 8.21914063 -2.046875 8.33203125 C-2.93890625 8.49058594 -3.8309375 8.64914062 -4.75 8.8125 C-5.63171875 8.96332031 -6.5134375 9.11414063 -7.421875 9.26953125 C-10.41134064 10.11654651 -11.82219406 10.76780556 -14 13 C-14.42677963 15.63454348 -14.60478396 17.87230436 -14.609375 20.51171875 C-14.62591125 21.23994339 -14.64244751 21.96816803 -14.65948486 22.71846008 C-14.70802197 25.04155865 -14.72934669 27.3640025 -14.75 29.6875 C-14.77815518 31.26370492 -14.80808199 32.83987926 -14.83984375 34.41601562 C-14.91378144 38.27728983 -14.96332032 42.13819939 -15 46 C-17.97 46 -20.94 46 -24 46 C-24 31.15 -24 16.3 -24 1 C-21.03 1 -18.06 1 -15 1 C-14.67 1.66 -14.34 2.32 -14 3 C-13.175 2.505 -12.35 2.01 -11.5 1.5 C-7.24511812 -0.32352081 -4.57691329 -0.23673689 0 0 Z " fill="#4C3E79" transform="translate(410,556)"/>
<path d="M0 0 C3.47065399 3.47065399 4.90575431 5.86905171 5.3125 10.75 C5.26462501 15.13854092 3.82706424 17.60752292 1 21 C-3.45577347 23.97051564 -7.77442606 23.62737491 -13 23 C-16.53214485 20.98163151 -18.80160052 18.92203467 -20 15 C-20.45454925 10.30299108 -20.4551419 7.96490083 -18.4375 3.6875 C-13.03994521 -2.26365015 -7.1754243 -3.1088879 0 0 Z " fill="#4C3E79" transform="translate(357,491)"/>
<path d="M0 0 C2.97 0 5.94 0 9 0 C9 14.85 9 29.7 9 45 C6.03 45 3.06 45 0 45 C0 30.15 0 15.3 0 0 Z " fill="#4C3E79" transform="translate(1094,557)"/>
<path d="M0 0 C2.97 0 5.94 0 9 0 C9 14.85 9 29.7 9 45 C6.03 45 3.06 45 0 45 C0 30.15 0 15.3 0 0 Z " fill="#4C3E79" transform="translate(871,557)"/>
<path d="M0 0 C3.4375 0.1875 3.4375 0.1875 4.4375 1.1875 C4.47842937 3.52047433 4.47991723 5.85455225 4.4375 8.1875 C1.67499964 9.56875018 -0.50981099 9.37829306 -3.5625 9.1875 C-5.5625 7.1875 -5.5625 7.1875 -5.8125 4.6875 C-5.39271275 0.48962753 -4.08147862 0.21481466 0 0 Z " fill="#4C3E79" transform="translate(1098.5625,540.8125)"/>
<path d="M0 0 C3.4375 0.1875 3.4375 0.1875 4.4375 1.1875 C4.47842937 3.52047433 4.47991723 5.85455225 4.4375 8.1875 C1.67499964 9.56875018 -0.50981099 9.37829306 -3.5625 9.1875 C-5.5625 7.1875 -5.5625 7.1875 -5.8125 4.6875 C-5.39271275 0.48962753 -4.08147862 0.21481466 0 0 Z " fill="#4C3E79" transform="translate(875.5625,540.8125)"/>
</svg>
