<svg width="2079" height="756" viewBox="0 0 2079 756" fill="none" xmlns="http://www.w3.org/2000/svg">
<path d="M157 222C166.001 230.203 172.822 241.068 179.9 250.923C183.893 256.479 187.932 261.998 192 267.5C197.082 274.376 202.11 281.288 207.103 288.228C211.049 293.704 215.047 299.138 219.062 304.562C223.973 311.202 228.79 317.899 233.534 324.659C238.739 332.07 244.049 339.405 249.363 346.738C250.985 348.979 252.603 351.223 254.219 353.469C261.489 363.566 268.839 373.602 276.234 383.609C278.577 386.781 280.916 389.955 283.254 393.13C284.413 394.703 285.571 396.274 286.73 397.846C289.765 401.962 292.794 406.082 295.816 410.207C296.757 411.489 296.757 411.489 297.717 412.797C298.911 414.425 300.104 416.053 301.295 417.684C304.401 421.913 307.593 426.009 311 430C314.85 428.512 316.228 426.526 318.375 423.062C322.006 417.42 325.872 412.01 329.875 406.625C333.98 401.092 338.072 395.554 342.062 389.937C342.858 388.819 343.654 387.7 344.449 386.582C344.856 386.01 345.262 385.439 345.681 384.85C352.83 374.821 360.066 364.864 367.484 355.033C371.734 349.388 375.873 343.668 379.997 337.931C384.02 332.34 388.093 326.788 392.188 321.25C397.003 314.733 401.759 308.179 406.453 301.574C409.385 297.451 412.349 293.35 415.312 289.25C415.858 288.496 416.403 287.741 416.964 286.964C419.773 283.076 422.586 279.191 425.402 275.309C430.16 268.745 434.907 262.18 439.5 255.5C463.521 220.661 463.521 220.661 471.902 218.328C478.85 217.241 485.851 217.208 492 221C496.632 225.359 499.077 228.792 499.304 235.19C499.343 236.276 499.381 237.362 499.421 238.481C499.559 243.51 499.657 248.539 499.735 253.57C499.786 256.205 499.861 258.84 499.96 261.474C500.579 278.18 500.134 289.816 488.462 302.401C486.517 304.528 484.877 306.826 483.223 309.184C482.171 310.603 481.118 312.021 480.062 313.437C475.455 319.656 470.892 325.903 466.375 332.187C459.867 341.234 453.189 350.146 446.463 359.031C443.528 362.921 440.683 366.847 437.938 370.875C429.321 383.417 420.274 395.656 411.232 407.893C407.286 413.237 403.381 418.609 399.5 424C394.46 431.002 389.358 437.956 384.23 444.895C380.286 450.239 376.38 455.609 372.5 461C368.04 467.197 363.537 473.36 359 479.5C351.709 489.369 344.523 499.313 337.363 509.278C334.125 513.784 330.876 518.282 327.613 522.77C325.96 525.055 324.326 527.354 322.691 529.652C321.628 531.123 320.565 532.593 319.5 534.062C318.78 535.09 318.78 535.09 318.045 536.139C316.049 538.864 314.511 540.771 311.395 542.168C309 542 309 542 307.043 540.516C306.431 539.768 305.818 539.02 305.188 538.25C304.49 537.404 303.793 536.559 303.074 535.687C300.479 532.325 297.972 528.913 295.508 525.453C292.231 520.893 288.789 516.457 285.375 512C280.057 505.049 274.799 498.059 269.625 491C264.985 484.671 260.275 478.41 255.469 472.207C252.732 468.667 250.053 465.084 247.375 461.5C239.984 451.616 232.492 441.808 225 432C224.399 431.213 223.799 430.427 223.18 429.617C217.861 422.652 212.536 415.692 207.187 408.75C200.096 399.522 193.053 390.257 186 381C185.67 434.46 185.34 487.92 185 543C134 543 134 543 126 538C121.162 532.018 121.431 526.303 121.485 518.823C121.478 517.597 121.471 516.372 121.464 515.11C121.449 511.72 121.452 508.331 121.462 504.942C121.469 501.282 121.453 497.622 121.44 493.962C121.419 486.797 121.419 479.632 121.427 472.466C121.433 466.642 121.432 460.817 121.426 454.993C121.425 454.163 121.424 453.334 121.423 452.48C121.421 450.795 121.419 449.11 121.417 447.425C121.401 431.629 121.41 415.833 121.426 400.037C121.441 385.59 121.427 371.144 121.398 356.697C121.368 341.857 121.357 327.017 121.367 312.178C121.368 310.499 121.369 308.82 121.37 307.141C121.37 306.315 121.371 305.489 121.371 304.638C121.373 298.822 121.364 293.006 121.349 287.191C121.332 280.1 121.332 273.011 121.354 265.92C121.366 262.304 121.369 258.688 121.35 255.072C121.33 251.149 121.349 247.227 121.372 243.304C121.36 242.165 121.348 241.026 121.336 239.852C121.416 233.013 122.397 228.223 127 223C135.961 215.868 147.265 216.29 157 222Z" fill="#E14D29"/>
<path d="M955.636 217.852C956.93 217.845 958.224 217.838 959.557 217.831C960.973 217.828 962.39 217.825 963.806 217.823C965.311 217.816 966.817 217.81 968.322 217.803C973.245 217.782 978.168 217.771 983.091 217.761C984.791 217.757 986.491 217.753 988.19 217.749C996.173 217.73 1004.15 217.716 1012.14 217.707C1021.34 217.698 1030.53 217.671 1039.73 217.631C1046.86 217.601 1053.98 217.586 1061.1 217.583C1065.35 217.58 1069.6 217.571 1073.85 217.546C1077.85 217.523 1081.84 217.519 1085.84 217.529C1087.3 217.529 1088.76 217.523 1090.23 217.509C1099.95 217.423 1106.15 218.01 1113.81 224.312C1117.68 229.058 1119.63 233.747 1119.35 239.953C1118.47 245.157 1116.01 249.398 1112.06 252.875C1107.26 256.206 1103.67 257.249 1097.83 257.265C1095.97 257.277 1095.97 257.277 1094.07 257.29C1092.71 257.289 1091.34 257.288 1089.97 257.287C1088.53 257.293 1087.08 257.3 1085.63 257.307C1082.53 257.322 1079.42 257.331 1076.31 257.335C1071.4 257.342 1066.49 257.364 1061.58 257.388C1050.27 257.441 1038.96 257.474 1027.65 257.507C1017.28 257.538 1006.91 257.573 996.534 257.624C991.648 257.647 986.762 257.661 981.877 257.667C978.843 257.673 975.81 257.687 972.777 257.704C971.367 257.709 969.957 257.712 968.547 257.711C966.628 257.71 964.708 257.722 962.789 257.735C961.713 257.737 960.638 257.74 959.529 257.743C956.832 257.748 956.832 257.748 955.002 260C954.784 263.011 954.69 265.933 954.683 268.947C954.668 270.338 954.668 270.338 954.652 271.756C954.621 274.829 954.604 277.903 954.587 280.976C954.569 283.103 954.549 285.23 954.529 287.357C954.477 292.963 954.438 298.569 954.401 304.175C954.361 309.893 954.31 315.61 954.259 321.328C954.162 332.552 954.078 343.775 954.002 355C955.019 354.994 955.019 354.994 956.056 354.988C972.574 354.9 989.092 354.834 1005.61 354.792C1013.6 354.772 1021.59 354.744 1029.57 354.698C1036.54 354.658 1043.5 354.632 1050.47 354.623C1054.15 354.618 1057.84 354.606 1061.52 354.577C1065.64 354.544 1069.76 354.544 1073.88 354.545C1075.1 354.531 1076.31 354.517 1077.57 354.502C1085.66 354.541 1091.43 355.432 1097.38 361.375C1100.66 366.675 1101.75 371.796 1101 378C1099.23 384.028 1096.16 387.601 1091 391C1087.32 392.726 1084.44 393.248 1080.39 393.24C1079.27 393.243 1078.15 393.246 1077 393.248C1075.79 393.241 1074.57 393.234 1073.32 393.227C1072.03 393.227 1070.74 393.227 1069.41 393.227C1065.89 393.228 1062.36 393.216 1058.84 393.202C1055.15 393.19 1051.47 393.189 1047.78 393.186C1040.8 393.18 1033.83 393.164 1026.85 393.144C1018.91 393.121 1010.96 393.11 1003.02 393.1C986.679 393.079 970.34 393.044 954.002 393C954.086 406.621 954.181 420.242 954.289 433.863C954.339 440.188 954.385 446.512 954.423 452.837C954.46 458.938 954.507 465.04 954.56 471.141C954.578 473.471 954.593 475.801 954.605 478.131C954.622 481.39 954.651 484.648 954.683 487.907C954.685 488.874 954.687 489.842 954.689 490.838C954.7 491.727 954.712 492.616 954.723 493.532C954.729 494.303 954.734 495.074 954.74 495.868C955.039 498.308 955.707 499.916 957.002 502C959.687 503.342 961.747 503.124 964.755 503.124C966.593 503.128 966.593 503.128 968.468 503.132C969.833 503.13 971.199 503.128 972.564 503.125C973.996 503.127 975.429 503.129 976.861 503.131C979.951 503.136 983.041 503.138 986.131 503.138C991.024 503.139 995.916 503.152 1000.81 503.167C1001.63 503.17 1002.46 503.172 1003.31 503.175C1005 503.18 1006.69 503.186 1008.38 503.191C1019.77 503.226 1031.16 503.252 1042.55 503.25C1050.23 503.248 1057.91 503.265 1065.59 503.301C1069.66 503.319 1073.72 503.329 1077.78 503.316C1081.61 503.305 1085.44 503.317 1089.27 503.346C1090.66 503.352 1092.06 503.351 1093.46 503.34C1101.99 503.277 1108.9 503.943 1116 509C1120.29 514.129 1121.34 518.227 1121.21 524.851C1120.65 530.614 1118.82 534.616 1114.44 538.437C1110.3 541.701 1107.89 542.128 1102.57 542.147C1101.57 542.152 1101.57 542.152 1100.55 542.158C1098.3 542.169 1096.05 542.173 1093.8 542.177C1092.19 542.183 1090.59 542.189 1088.98 542.196C1083.69 542.218 1078.39 542.228 1073.1 542.238C1071.28 542.242 1069.45 542.246 1067.63 542.25C1059.06 542.269 1050.49 542.283 1041.92 542.292C1032.04 542.302 1022.16 542.328 1012.27 542.368C1004.63 542.399 996.988 542.413 989.346 542.417C984.784 542.419 980.222 542.428 975.661 542.453C971.362 542.476 967.064 542.48 962.765 542.47C961.194 542.47 959.624 542.476 958.053 542.49C946.258 542.588 934.998 541.383 926.002 533C915.496 522.573 913.374 508.211 913.234 494.142C913.233 490.667 913.26 487.193 913.289 483.718C913.287 481.197 913.283 478.676 913.276 476.154C913.267 470.055 913.285 463.956 913.317 457.856C913.352 450.742 913.355 443.628 913.356 436.513C913.359 423.819 913.391 411.124 913.439 398.43C913.486 386.129 913.514 373.828 913.521 361.526C913.521 360.767 913.522 360.009 913.522 359.227C913.523 357.698 913.524 356.169 913.525 354.639C913.525 353.885 913.526 353.131 913.526 352.354C913.527 351.601 913.527 350.848 913.528 350.073C913.535 338.319 913.558 326.565 913.583 314.811C913.591 310.561 913.598 306.311 913.604 302.06C913.614 294.692 913.634 287.325 913.666 279.957C913.675 277.512 913.68 275.068 913.682 272.623C913.686 269.286 913.702 265.948 913.721 262.611C913.719 261.645 913.717 260.679 913.715 259.684C913.815 248.03 916.964 237.504 925.009 228.855C934.004 220.477 943.488 217.899 955.636 217.852Z" fill="#141920"/>
<path d="M1804.47 217.853C1805.73 217.846 1806.99 217.839 1808.29 217.831C1809.67 217.828 1811.04 217.826 1812.42 217.823C1813.88 217.817 1815.35 217.81 1816.81 217.803C1821.6 217.782 1826.39 217.772 1831.18 217.762C1832.83 217.758 1834.49 217.754 1836.14 217.749C1843.91 217.73 1851.68 217.716 1859.44 217.708C1868.39 217.698 1877.34 217.672 1886.29 217.631C1893.22 217.601 1900.15 217.586 1907.08 217.583C1911.21 217.581 1915.35 217.572 1919.48 217.547C1923.37 217.523 1927.26 217.519 1931.15 217.529C1932.57 217.53 1933.99 217.524 1935.41 217.51C1944.39 217.428 1952.11 217.799 1959.15 223.852C1959.6 224.437 1960.04 225.022 1960.5 225.625C1960.96 226.215 1961.43 226.806 1961.9 227.414C1965.44 232.542 1964.67 239.039 1964 245C1961.7 250.566 1957.94 253.511 1952.56 256.134C1947.22 257.937 1941.59 257.54 1936.01 257.498C1934.61 257.502 1933.2 257.508 1931.8 257.515C1928.78 257.527 1925.77 257.527 1922.76 257.517C1918 257.501 1913.24 257.515 1908.48 257.533C1899.24 257.563 1890 257.565 1880.76 257.563C1868.98 257.562 1857.21 257.572 1845.43 257.611C1840.69 257.626 1835.96 257.626 1831.22 257.614C1828.28 257.609 1825.35 257.617 1822.41 257.628C1820.39 257.631 1818.37 257.62 1816.36 257.608C1814.56 257.618 1814.56 257.618 1812.73 257.628C1811.69 257.628 1810.65 257.627 1809.58 257.627C1806.99 257.805 1806.99 257.805 1805.16 259.278C1803.04 262.42 1803.56 266.296 1803.57 269.97C1803.56 270.887 1803.55 271.804 1803.53 272.749C1803.5 275.785 1803.5 278.82 1803.49 281.856C1803.47 283.959 1803.45 286.062 1803.43 288.165C1803.38 293.704 1803.35 299.242 1803.33 304.781C1803.3 310.432 1803.25 316.082 1803.21 321.733C1803.12 332.822 1803.05 343.911 1803 355C1804 354.996 1804 354.996 1805.02 354.992C1821.29 354.925 1837.56 354.876 1853.82 354.845C1861.69 354.829 1869.56 354.808 1877.43 354.774C1884.28 354.744 1891.14 354.724 1898 354.718C1901.63 354.714 1905.26 354.705 1908.89 354.683C1912.95 354.659 1917.01 354.658 1921.06 354.66C1922.26 354.649 1923.46 354.638 1924.69 354.627C1934.21 354.662 1941.04 356.212 1948 363C1951.45 368.237 1950.56 375.013 1950 381C1947.58 386.205 1943.89 389.63 1938.69 392.094C1935.74 393.087 1933.46 393.246 1930.35 393.241C1929.22 393.243 1928.1 393.246 1926.94 393.249C1925.1 393.238 1925.1 393.238 1923.22 393.227C1921.27 393.228 1921.27 393.228 1919.29 393.228C1915.74 393.229 1912.19 393.217 1908.63 393.203C1904.92 393.19 1901.21 393.189 1897.49 393.187C1890.46 393.181 1883.43 393.164 1876.4 393.144C1868.4 393.122 1860.39 393.111 1852.39 393.101C1835.92 393.08 1819.46 393.045 1803 393C1803.04 406.9 1803.1 420.799 1803.18 434.698C1803.22 441.151 1803.25 447.605 1803.27 454.058C1803.28 460.283 1803.32 466.507 1803.37 472.732C1803.38 475.11 1803.39 477.489 1803.39 479.867C1803.39 483.191 1803.42 486.514 1803.45 489.837C1803.45 490.827 1803.44 491.817 1803.44 492.836C1803.45 493.741 1803.46 494.645 1803.48 495.577C1803.48 496.363 1803.49 497.15 1803.49 497.96C1803.85 500.136 1803.85 500.136 1805.66 501.753C1808.61 503.326 1810.63 503.374 1813.97 503.372C1815.8 503.382 1815.8 503.382 1817.67 503.392C1819.02 503.385 1820.38 503.377 1821.73 503.369C1823.15 503.371 1824.58 503.375 1826.01 503.38C1829.08 503.389 1832.15 503.388 1835.22 503.38C1840.07 503.369 1844.93 503.381 1849.79 503.397C1861.86 503.433 1873.93 503.439 1886 503.437C1895.38 503.435 1904.75 503.442 1914.13 503.477C1918.95 503.494 1923.78 503.492 1928.6 503.476C1931.61 503.47 1934.62 503.481 1937.63 503.496C1939.02 503.5 1940.41 503.497 1941.8 503.486C1950.78 503.423 1956.83 504.02 1964.09 509.613C1968.65 515.123 1968.82 520.496 1968.52 527.492C1967.59 533.741 1965.18 536.32 1960.32 540.055C1956.53 542.271 1954.45 542.505 1950.09 542.515C1949.42 542.522 1948.75 542.529 1948.06 542.536C1945.83 542.554 1943.59 542.544 1941.36 542.534C1939.75 542.541 1938.15 542.549 1936.54 542.56C1932.18 542.582 1927.82 542.579 1923.47 542.57C1919.82 542.565 1916.18 542.573 1912.53 542.58C1903.92 542.597 1895.32 542.593 1886.71 542.577C1877.85 542.56 1868.99 542.575 1860.14 542.608C1852.51 542.635 1844.89 542.642 1837.27 542.633C1832.73 542.628 1828.19 542.63 1823.64 542.651C1819.36 542.67 1815.08 542.663 1810.8 542.639C1809.24 542.634 1807.68 542.637 1806.11 542.65C1793.87 542.742 1782.92 540.84 1773.75 532.086C1765.92 522.757 1763.69 513.009 1763.74 501.203C1763.73 500.126 1763.73 499.049 1763.73 497.94C1763.72 494.336 1763.72 490.733 1763.72 487.13C1763.72 484.544 1763.71 481.958 1763.71 479.372C1763.7 473.081 1763.69 466.789 1763.7 460.497C1763.7 455.381 1763.7 450.265 1763.69 445.149C1763.69 444.42 1763.69 443.692 1763.69 442.941C1763.69 441.46 1763.69 439.979 1763.69 438.498C1763.68 424.617 1763.68 410.737 1763.68 396.856C1763.69 384.169 1763.68 371.483 1763.66 358.796C1763.64 345.758 1763.63 332.719 1763.63 319.681C1763.64 312.366 1763.63 305.05 1763.62 297.735C1763.61 290.854 1763.61 283.974 1763.62 277.093C1763.62 274.57 1763.62 272.048 1763.61 269.525C1763.6 266.076 1763.61 262.627 1763.62 259.178C1763.62 258.185 1763.61 257.191 1763.6 256.168C1763.69 244.588 1767.05 235.538 1775 227C1783.9 220.126 1793.35 217.897 1804.47 217.853Z" fill="#13181F"/>
<path d="M624.001 221C629.178 225.372 631.903 230.147 633.876 236.563C635.131 240.639 636.625 244.538 638.288 248.461C640.888 254.672 643.302 260.94 645.669 267.242C646.562 269.608 647.455 271.973 648.347 274.339C648.81 275.567 649.273 276.795 649.75 278.061C657.133 297.649 664.588 317.207 672.251 336.688C680.945 358.799 689.458 380.977 697.923 403.176C699.326 406.853 700.731 410.53 702.136 414.206C706.101 424.58 710.052 434.959 713.992 445.342C715.044 448.115 716.098 450.888 717.152 453.66C718.935 458.354 720.712 463.051 722.485 467.748C723.157 469.528 723.831 471.307 724.507 473.085C725.437 475.533 726.36 477.983 727.282 480.434C727.559 481.16 727.837 481.886 728.122 482.634C729.22 485.57 730.001 487.837 730.001 491C730.661 491 731.321 491 732.001 491C732.127 490.131 732.253 489.263 732.384 488.367C732.975 485.142 733.815 482.224 734.876 479.125C735.203 478.158 735.531 477.192 735.868 476.196C736.941 473.168 738.059 470.161 739.193 467.155C740.038 464.902 740.863 462.642 741.684 460.379C741.973 459.588 742.261 458.797 742.557 457.983C743.143 456.374 743.726 454.765 744.307 453.155C745.756 449.188 747.283 445.304 749.036 441.461C751.017 437.085 752.544 432.636 754.001 428.063C755.813 422.504 757.692 417.028 759.934 411.625C761.38 408.067 762.72 404.473 764.063 400.875C764.309 400.218 764.554 399.56 764.807 398.883C765.168 397.916 765.168 397.916 765.536 396.93C765.776 396.285 766.017 395.641 766.265 394.977C766.767 393.628 767.267 392.279 767.766 390.93C769.229 386.991 770.775 383.11 772.438 379.25C774.523 374.295 776.299 369.307 777.911 364.18C778.763 361.693 779.673 359.283 780.657 356.848C784.043 348.469 787.224 340.009 790.438 331.563C790.966 330.176 790.966 330.176 791.505 328.762C801.272 303.091 810.919 277.388 819.957 251.449C822.141 245.187 824.357 238.937 826.677 232.723C827.06 231.694 827.443 230.666 827.838 229.606C829.387 226.136 831.032 224.327 834.001 222C834.661 221.34 835.321 220.68 836.001 220C843.65 217.3 849.552 217.173 856.848 220.653C860.879 223.177 863.88 226.759 866.001 231C867.075 239.206 866.129 245.67 862.97 253.176C862.324 254.77 861.681 256.365 861.038 257.96C860.702 258.786 860.365 259.612 860.019 260.464C858.321 264.694 856.726 268.962 855.126 273.231C854.452 275.019 853.779 276.808 853.105 278.597C852.762 279.507 852.42 280.417 852.067 281.355C840.769 311.37 829.223 341.287 817.626 371.188C817.229 372.211 816.832 373.235 816.423 374.29C815.221 377.389 814.019 380.487 812.817 383.586C812.42 384.609 812.024 385.632 811.615 386.686C809.599 391.883 807.582 397.079 805.563 402.275C803.598 407.331 801.636 412.388 799.675 417.447C798.945 419.33 798.213 421.212 797.481 423.094C792.366 436.237 792.366 436.237 787.799 449.579C786.082 454.786 783.928 459.827 781.778 464.867C779.213 470.909 776.983 476.954 774.966 483.199C774.098 485.717 773.119 488.086 772.001 490.5C769.963 494.903 768.493 499.426 766.993 504.035C765.519 508.441 763.786 512.713 762.001 517C761.535 518.163 761.07 519.326 760.591 520.524C756.531 530.529 752.833 536.99 743.001 542C735.094 545.075 726.991 544.982 719.095 541.965C709.533 537.559 704.706 529.616 701.036 519.989C700.578 518.736 700.578 518.736 700.11 517.457C699.768 516.552 699.426 515.647 699.074 514.715C698.34 512.767 697.61 510.818 696.886 508.867C695.327 504.671 693.742 500.484 692.16 496.297C691.336 494.116 690.513 491.936 689.692 489.754C685.516 478.674 681.207 467.646 676.876 456.625C676.129 454.722 675.382 452.818 674.635 450.914C673.524 448.082 672.413 445.25 671.302 442.419C668.724 435.85 666.156 429.278 663.595 422.703C663.237 421.786 662.879 420.868 662.511 419.923C661.144 416.414 659.777 412.906 658.411 409.397C654.878 400.316 651.319 391.247 647.712 382.196C647.382 381.365 647.052 380.534 646.712 379.678C645 375.396 643.217 371.174 641.251 367C639.108 362.428 637.566 357.766 636.028 352.961C635.029 350.08 633.861 347.383 632.563 344.625C630.067 339.319 628.119 333.889 626.188 328.356C624.593 323.847 622.812 319.426 621.001 315C619.116 310.331 617.233 305.666 615.501 300.938C614.481 298.18 613.345 295.509 612.122 292.836C610.045 288.193 608.278 283.474 606.563 278.688C603.677 270.744 600.577 262.925 597.206 255.172C596.353 253.203 595.52 251.228 594.688 249.25C594.177 248.059 593.665 246.868 593.138 245.641C591.484 240.346 590.919 234.987 593.563 229.875C596.385 224.792 600.424 221.454 605.438 218.625C612.098 217.001 618.002 217.769 624.001 221Z" fill="#13171E"/>
<path d="M1480 221C1486.2 226.419 1488.86 232.694 1491.38 240.363C1491.76 241.455 1492.13 242.547 1492.52 243.673C1493.32 246.005 1494.12 248.34 1494.9 250.678C1496.56 255.6 1498.25 260.506 1499.94 265.415C1500.79 267.868 1501.63 270.323 1502.47 272.778C1505.74 282.302 1509.14 291.764 1512.69 301.188C1513.2 302.552 1513.71 303.917 1514.22 305.282C1515.26 308.047 1516.3 310.811 1517.34 313.574C1519.18 318.472 1521 323.376 1522.82 328.281C1523.15 329.171 1523.48 330.06 1523.82 330.977C1524.5 332.799 1525.18 334.621 1525.85 336.442C1530.28 348.37 1534.73 360.294 1539.21 372.203C1539.55 373.111 1539.89 374.019 1540.24 374.955C1541.87 379.274 1543.5 383.592 1545.13 387.909C1547.95 395.391 1550.7 402.867 1553.14 410.485C1554.06 413.175 1555.13 415.765 1556.25 418.375C1561.15 429.871 1565.33 441.741 1569.19 453.625C1570.41 457.385 1571.81 460.994 1573.37 464.625C1575.61 469.861 1577.5 475.17 1579.31 480.562C1579.58 481.349 1579.84 482.135 1580.12 482.946C1581.15 486.066 1582 488.691 1582 492C1582.66 492 1583.32 492 1584 492C1584.1 490.845 1584.2 489.69 1584.31 488.5C1584.88 484.044 1586.28 480.132 1588 476C1588.96 473.647 1589.92 471.294 1590.87 468.938C1591.13 468.298 1591.39 467.659 1591.66 467C1593.97 461.223 1595.93 455.363 1597.82 449.438C1599.04 445.869 1600.51 442.463 1602 439C1602.65 437.112 1603.27 435.216 1603.87 433.312C1605.6 428.013 1607.66 422.925 1609.85 417.801C1610.84 415.384 1611.71 412.988 1612.5 410.5C1613.57 407.137 1614.85 403.93 1616.25 400.688C1618.35 395.723 1620.19 390.718 1621.94 385.625C1625.36 375.696 1628.98 365.848 1632.62 356C1637.25 343.475 1641.85 330.939 1646.37 318.375C1649.91 308.56 1653.45 298.748 1657.02 288.945C1657.36 288.004 1657.7 287.062 1658.06 286.091C1659.78 281.348 1661.51 276.605 1663.25 271.864C1666.24 263.674 1669.2 255.48 1672.03 247.23C1672.48 245.924 1672.93 244.618 1673.38 243.313C1674.18 240.99 1674.96 238.664 1675.73 236.332C1678.01 229.711 1680.61 223.408 1687.02 219.89C1693.23 217.206 1698.71 217.362 1705.06 219.563C1710.01 221.689 1713.19 224.406 1716 229C1716.87 231.438 1716.87 231.438 1717 234C1717.08 235.158 1717.15 236.316 1717.23 237.509C1717.21 242.897 1715.35 247.452 1713.42 252.422C1712.87 253.894 1712.87 253.894 1712.31 255.395C1711.13 258.518 1709.94 261.634 1708.75 264.75C1707.58 267.846 1706.41 270.943 1705.24 274.041C1704.49 276.034 1703.74 278.027 1702.98 280.018C1700.8 285.781 1698.78 291.567 1696.88 297.43C1695.94 300.161 1694.86 302.795 1693.73 305.453C1690.32 313.464 1687.38 321.644 1684.39 329.816C1682.51 334.939 1680.62 340.059 1678.73 345.18C1678.34 346.24 1677.95 347.301 1677.55 348.394C1673.43 359.569 1669.25 370.724 1665.06 381.875C1664.69 382.861 1664.32 383.846 1663.94 384.862C1662.43 388.87 1660.93 392.878 1659.42 396.886C1656.72 404.088 1654.02 411.294 1651.32 418.5C1644.01 438.02 1636.68 457.526 1629.21 476.984C1626.46 484.138 1623.75 491.303 1621.12 498.5C1618.89 504.598 1616.63 510.685 1614.31 516.75C1614.04 517.478 1613.76 518.205 1613.48 518.955C1609.47 529.356 1603.79 536.868 1594.12 542.75C1587.38 545.408 1578.92 545.123 1572.05 543.156C1559.35 537.399 1555.34 525.797 1550.74 513.586C1550.29 512.399 1550.29 512.399 1549.83 511.188C1549.18 509.479 1548.54 507.77 1547.89 506.06C1546.12 501.376 1544.34 496.694 1542.56 492.012C1542.19 491.032 1541.82 490.051 1541.43 489.042C1537.65 479.071 1533.83 469.114 1530.01 459.157C1523.52 442.237 1517.06 425.306 1510.68 408.346C1510.15 406.964 1509.63 405.582 1509.11 404.199C1508.86 403.533 1508.61 402.867 1508.35 402.181C1506.37 396.949 1504.34 391.737 1502.3 386.527C1500.02 380.68 1497.82 374.825 1495.81 368.875C1492.88 360.354 1489.77 351.901 1486.61 343.461C1486.09 342.045 1485.56 340.629 1485.03 339.212C1482.48 332.367 1479.88 325.581 1476.84 318.934C1475.5 315.852 1474.51 312.706 1473.5 309.5C1472.18 305.409 1470.83 301.396 1469 297.5C1466.87 292.973 1465.39 288.257 1463.85 283.508C1462.73 280.078 1461.53 276.766 1460 273.5C1457.91 269.043 1456.43 264.413 1454.94 259.734C1453.58 255.556 1451.99 251.577 1450.19 247.563C1447.38 240.926 1446.95 236.28 1449.44 229.375C1451.93 224.208 1455.94 221.494 1461 219C1467.65 216.951 1473.98 217.619 1480 221Z" fill="#12171E"/>
<path d="M1300.97 217.758C1333.98 217.655 1333.98 217.654 1348.69 222.686C1349.87 223.077 1349.87 223.078 1351.07 223.476C1362.66 227.445 1372.86 232.751 1382 240.999L1384.11 242.827C1392.65 250.702 1398.28 261.086 1402 271.999L1403 274.729C1410.35 298.767 1408.35 325.514 1396.63 347.811C1386.26 365.2 1371.51 376.283 1353 383.999L1355.06 386.061L1356.45 387.471C1357.48 388.485 1358.53 389.473 1359.61 390.432C1375.49 405.034 1382.22 429.454 1390.47 448.815C1390.95 449.962 1391.44 451.109 1391.95 452.291C1394.48 458.25 1397.01 464.212 1399.54 470.179C1405.66 484.672 1405.66 484.672 1412.15 498.999C1412.45 499.629 1412.74 500.259 1413.04 500.908C1414.3 503.595 1415.57 506.264 1416.9 508.913C1420.33 516.168 1420.94 523.025 1420 530.999C1417.81 536.706 1414.46 540.154 1409 542.999C1403.46 544.75 1397.89 544.551 1392.38 542.936C1383.6 537.896 1380.6 529.256 1376.94 520.345C1375.98 518.007 1375 515.676 1374.02 513.346C1373.01 510.931 1371.99 508.515 1370.98 506.096C1367.76 498.382 1364.43 490.716 1361.06 483.061C1360.78 482.421 1360.5 481.78 1360.21 481.12C1358.46 477.127 1356.7 473.135 1354.95 469.144C1353.95 466.884 1352.96 464.623 1351.96 462.362C1350.2 458.353 1348.43 454.345 1346.66 450.34C1345.99 448.813 1345.31 447.287 1344.64 445.76C1333.99 418.171 1333.99 418.17 1313.38 398.686C1307.87 397.093 1302.49 396.858 1296.79 396.886C1295.99 396.885 1295.19 396.886 1294.37 396.886C1291.74 396.886 1289.11 396.893 1286.48 396.901C1284.65 396.903 1282.82 396.905 1280.99 396.906C1276.18 396.91 1271.38 396.919 1266.58 396.93C1261.67 396.941 1256.76 396.945 1251.86 396.95C1242.24 396.961 1232.62 396.978 1223 396.999C1223 397.667 1223.01 398.336 1223.01 399.025C1223.08 415.309 1223.13 431.594 1223.16 447.878C1223.17 455.752 1223.19 463.627 1223.23 471.502C1223.26 478.367 1223.28 485.232 1223.28 492.097C1223.29 495.731 1223.3 499.365 1223.32 502.999C1223.34 507.059 1223.34 511.119 1223.34 515.179C1223.35 516.379 1223.36 517.579 1223.37 518.815C1223.34 526.825 1222.32 531.55 1217.81 538.249C1213.47 542.495 1208.99 544.112 1202.94 544.311C1196.38 543.791 1192.56 542.98 1188.06 538.061C1185 534.46 1185 534.46 1185 530.999H1183C1182.93 494.972 1182.88 458.945 1182.85 422.919C1182.84 418.665 1182.84 414.41 1182.84 410.156C1182.84 409.309 1182.83 408.461 1182.83 407.589C1182.82 393.879 1182.8 380.17 1182.77 366.461C1182.74 352.391 1182.72 338.321 1182.72 324.252C1182.71 315.572 1182.7 306.892 1182.68 298.212C1182.66 292.257 1182.66 286.303 1182.66 280.348C1182.66 276.914 1182.66 273.481 1182.64 270.047C1182.63 266.319 1182.63 262.591 1182.64 258.863C1182.63 257.784 1182.62 256.706 1182.61 255.595C1182.68 244.096 1185.95 236.371 1193.82 228.085C1203.42 218.963 1214.5 217.848 1227.16 217.854C1228.16 217.851 1229.16 217.847 1230.19 217.844C1233.48 217.834 1236.77 217.832 1240.06 217.831C1242.36 217.828 1244.66 217.825 1246.97 217.821C1251.8 217.815 1256.63 217.814 1261.46 217.814C1267.6 217.814 1273.75 217.8 1279.9 217.783C1284.66 217.772 1289.42 217.77 1294.18 217.77C1296.44 217.769 1298.71 217.765 1300.97 217.758ZM1308.26 255.454C1306.09 255.463 1303.92 255.467 1301.74 255.465C1297.19 255.454 1292.63 255.449 1288.08 255.464C1282.18 255.488 1276.29 255.501 1270.39 255.478C1265.77 255.46 1261.14 255.451 1256.52 255.457C1254.31 255.462 1252.11 255.466 1249.91 255.469C1246.75 255.455 1243.59 255.443 1240.44 255.461C1239.45 255.468 1238.5 255.475 1237.54 255.482C1232.87 255.44 1229.21 255.432 1224.94 257.429C1222.47 260.703 1222.41 262.817 1222.38 266.844C1222.4 267.792 1222.42 268.713 1222.43 269.634C1222.43 272.737 1222.44 275.839 1222.47 278.942C1222.5 281.16 1222.52 283.379 1222.53 285.597C1222.54 291.407 1222.57 297.217 1222.62 303.026C1222.68 309.048 1222.72 315.07 1222.74 321.092C1222.8 334.061 1222.89 347.031 1223 360C1234.82 360.042 1246.64 360.076 1258.46 360.097C1264.5 360.108 1270.53 360.116 1276.56 360.137C1282.47 360.159 1288.37 360.179 1294.27 360.186C1296.53 360.188 1298.78 360.191 1301.03 360.195C1304.26 360.211 1307.49 360.226 1310.72 360.227C1311.74 360.227 1312.72 360.227 1313.71 360.226C1320.41 360.279 1326.53 359.838 1333 358C1346.96 352.924 1357.32 344.299 1364 331C1370.27 315.81 1371.11 300.374 1365.22 284.871C1360.81 274.493 1354.01 265.459 1343.34 260.941C1342.55 260.621 1341.77 260.311 1341 260C1330.17 255.461 1319.84 255.415 1308.26 255.454Z" fill="#13181E"/>
<path d="M497.999 449C498.329 449 498.659 449 498.999 449C499.092 459.571 499.163 470.141 499.206 480.712C499.227 485.621 499.255 490.529 499.301 495.438C499.344 500.178 499.368 504.917 499.379 509.657C499.386 511.463 499.4 513.268 499.422 515.074C499.451 517.609 499.455 520.143 499.453 522.678C499.475 523.79 499.475 523.79 499.497 524.925C499.453 530.49 498.083 533.531 494.999 538C490.209 541.793 486.516 543.131 480.506 543.114C479.185 543.113 479.185 543.113 477.837 543.113C476.896 543.108 475.954 543.103 474.983 543.098C473.527 543.096 473.527 543.096 472.041 543.093C468.944 543.088 465.846 543.075 462.749 543.062C460.647 543.057 458.546 543.053 456.444 543.049C451.296 543.038 446.147 543.021 440.999 543C439.938 525.879 439.938 525.879 446.624 518.188C447.825 516.671 449.026 515.154 450.226 513.637C450.85 512.875 451.474 512.114 452.117 511.33C455.219 507.49 458.094 503.489 460.999 499.5C462.175 497.906 463.352 496.312 464.53 494.719C467.884 490.168 471.197 485.588 474.499 481C481.257 471.612 488.105 462.289 494.999 453C495.533 452.259 496.067 451.519 496.618 450.755C497.074 450.176 497.529 449.597 497.999 449Z" fill="#DE4D29"/>
<path d="M558.998 499.809C566.026 499.431 571.753 501.091 577.053 505.836C582.154 511.35 584.508 516.238 584.244 523.926C583.362 531.476 579.803 536.264 574.002 541C567.724 545.423 560.513 544.585 553.252 543.375C547.352 540.879 543.431 537.461 540.564 531.687C537.886 524.806 538.209 518.538 541.092 511.781C543.95 506.188 548.286 502.205 554.314 500.25C555.876 500.105 557.437 499.958 558.998 499.809Z" fill="#E04E2A"/>
<path d="M1611 517C1611.66 517.33 1612.32 517.66 1613 518C1612.57 519.607 1612.13 521.211 1611.69 522.812C1611.44 523.706 1611.2 524.599 1610.95 525.52C1609.98 528.052 1609.05 529.272 1607 531C1607 529.68 1607 528.36 1607 527C1607.66 527 1608.32 527 1609 527C1609.14 525.907 1609.29 524.814 1609.44 523.688C1610 520 1610 520 1611 517Z" fill="#32353B"/>
<path d="M1956 222C1961.72 226.378 1961.72 226.378 1963 229.188C1963 229.786 1963 230.384 1963 231C1962.34 231.66 1961.68 232.32 1961 233C1960.35 231.73 1959.71 230.459 1959.06 229.188C1958.7 228.48 1958.34 227.772 1957.97 227.043C1957 225 1957 225 1956 222Z" fill="#1E2229"/>
<path d="M1110 506C1114.59 507.937 1116.81 509.489 1119 514C1116.51 512.796 1114.32 511.546 1112 510C1112 509.34 1112 508.68 1112 508C1111.34 508 1110.68 508 1110 508C1110 507.34 1110 506.68 1110 506Z" fill="#202329"/>
<path d="M1636 347C1636.66 347.66 1637.32 348.32 1638 349C1637.62 352.125 1637.62 352.125 1637 355C1636.01 355 1635.02 355 1634 355C1634.66 352.36 1635.32 349.72 1636 347Z" fill="#262A30"/>
<path d="M131 220C131.66 220.33 132.32 220.66 133 221C131.377 222.709 129.707 224.374 128 226C127.34 226 126.68 226 126 226C126 226.66 126 227.32 126 228C125.34 227.67 124.68 227.34 124 227C128.75 221.125 128.75 221.125 131 220Z" fill="#E26043"/>
<path d="M759.999 514C760.659 514.33 761.319 514.66 761.999 515C761.009 518.3 760.019 521.6 758.999 525C758.669 525 758.339 525 757.999 525C757.803 520.781 758.197 517.83 759.999 514Z" fill="#404247"/>
<path d="M1587 482C1587.66 482 1588.32 482 1589 482C1588.67 483.98 1588.34 485.96 1588 488C1586.68 488.33 1585.36 488.66 1584 489C1585.88 483.125 1585.88 483.125 1587 482Z" fill="#34383E"/>
<path d="M785 345C785.99 345.33 786.98 345.66 788 346C787.67 347.65 787.34 349.3 787 351C786.34 351 785.68 351 785 351C785 351.66 785 352.32 785 353C784.34 353 783.68 353 783 353C783.66 350.36 784.32 347.72 785 345Z" fill="#30343A"/>
<path d="M1365 325C1365.66 325.99 1366.32 326.98 1367 328C1365.62 331.688 1365.62 331.688 1364 335C1363.34 334.34 1362.68 333.68 1362 333C1362.99 330.36 1363.98 327.72 1365 325Z" fill="#24282F"/>
<path d="M1453 224C1453.66 224.99 1454.32 225.98 1455 227C1454.34 228.32 1453.68 229.64 1453 231C1452.01 231 1451.02 231 1450 231C1450.61 228.038 1451.25 226.619 1453 224Z" fill="#2F3339"/>
<path d="M792 327C792.66 327.66 793.32 328.32 794 329C793.625 332.125 793.625 332.125 793 335C792.01 335 791.02 335 790 335C790.66 332.36 791.32 329.72 792 327Z" fill="#282C32"/>
<path d="M132 540C134.64 540.33 137.28 540.66 140 541C139.67 541.66 139.34 542.32 139 543C136.69 542.67 134.38 542.34 132 542C132 541.34 132 540.68 132 540Z" fill="#E55836"/>
<path d="M759 414C759.66 415.32 760.32 416.64 761 418C760 421 760 421 756 424C756.99 420.7 757.98 417.4 759 414Z" fill="#42444A"/>
<path d="M1465 285C1465.99 285 1466.98 285 1468 285C1468.62 287.875 1468.62 287.875 1469 291C1468.34 291.66 1467.68 292.32 1467 293C1466.34 290.36 1465.68 287.72 1465 285Z" fill="#21242B"/>
</svg>
